<?xml version="1.0" standalone="no"?>
<!DOCTYPE svg PUBLIC "-//W3C//DTD SVG 20010904//EN"
 "http://www.w3.org/TR/2001/REC-SVG-20010904/DTD/svg10.dtd">
<svg version="1.0" xmlns="http://www.w3.org/2000/svg"
 width="512.000000pt" height="512.000000pt" viewBox="0 0 512.000000 512.000000"
 preserveAspectRatio="xMidYMid meet">

<g transform="translate(0.000000,512.000000) scale(0.100000,-0.100000)"
fill="#000000" stroke="none">
<path d="M2450 5053 c-135 -13 -212 -28 -330 -64 -291 -88 -450 -209 -564
-429 -42 -79 -52 -90 -151 -169 -58 -46 -128 -109 -156 -139 -261 -286 -447
-660 -449 -904 l0 -48 -35 0 c-40 0 -50 26 -12 33 l22 4 -22 8 c-14 4 -23 15
-23 27 0 16 5 19 28 13 23 -5 28 -2 29 15 1 16 -4 20 -28 20 -22 0 -29 5 -29
19 0 14 10 21 36 26 20 3 33 9 29 13 -7 7 -13 9 -43 11 -14 1 -19 9 -20 31 0
17 5 30 11 30 9 0 9 2 0 8 -7 5 -13 40 -14 91 -2 47 -6 75 -10 65 -8 -23 -29
-204 -29 -253 0 -29 -2 -32 -15 -21 -12 10 -15 10 -15 -3 0 -8 7 -20 15 -27
19 -16 19 -30 0 -30 -23 0 -18 -31 5 -37 27 -7 19 -29 -8 -25 -28 4 -30 -24
-2 -33 12 -4 20 -15 20 -28 0 -18 -6 -22 -32 -22 -20 0 -33 -5 -33 -13 0 -7
-7 -17 -15 -23 -11 -8 -7 -9 15 -4 19 3 38 0 49 -8 20 -15 14 -37 -9 -37 -8 0
-12 -6 -9 -14 8 -20 -14 -30 -32 -15 -8 6 -17 10 -20 7 -5 -6 58 -38 76 -38
20 0 4 -25 -18 -28 -12 -2 -22 -8 -22 -13 0 -6 -15 -8 -32 -6 -30 3 -33 6 -36
43 -11 121 32 348 108 575 125 376 383 700 838 1057 30 23 50 42 46 42 -25 0
-181 -89 -256 -145 -240 -181 -455 -438 -593 -710 -86 -170 -163 -430 -181
-617 -5 -53 -10 -68 -23 -68 -12 0 -13 -2 -3 -8 9 -6 12 -30 11 -75 l-2 -67
-130 0 c-72 0 -127 -3 -124 -7 4 -3 63 -5 132 -4 l126 2 -3 -45 c-2 -34 -7
-45 -16 -41 -18 7 -493 7 -500 0 -12 -12 10 -16 98 -16 l92 -1 -5 -61 c-3 -43
-10 -64 -23 -74 -17 -12 -17 -13 0 -13 10 0 16 -6 14 -12 -3 -7 -32 -17 -66
-22 -39 -6 -62 -14 -62 -22 0 -9 14 -12 50 -9 31 2 50 0 50 -7 0 -6 6 -5 16 3
14 11 15 9 12 -22 -2 -19 -6 -32 -10 -29 -4 3 -15 -5 -23 -17 -10 -14 -27 -23
-43 -23 -15 0 -45 -4 -67 -8 -34 -6 -27 -8 50 -12 83 -5 90 -7 93 -27 3 -17
-3 -24 -22 -29 -34 -8 -33 -24 2 -24 24 -1 25 -2 10 -14 -10 -7 -18 -18 -18
-24 0 -13 -18 -19 -51 -18 -16 1 -32 -7 -43 -22 l-17 -23 50 4 c27 2 57 10 66
17 13 11 15 8 15 -18 0 -16 -7 -35 -15 -42 -9 -7 -14 -18 -12 -24 3 -6 -2 -19
-11 -28 -20 -23 1 -23 24 -1 17 17 17 15 11 -31 -9 -62 -21 -76 -67 -76 -26 0
-37 -4 -37 -15 0 -12 14 -15 66 -15 45 0 61 -3 51 -10 -8 -5 -11 -12 -8 -16 4
-3 -15 -18 -42 -32 -52 -27 -57 -47 -10 -37 40 9 45 -8 15 -55 -30 -47 -65
-55 -65 -14 0 16 -4 23 -12 18 -7 -5 -9 0 -6 14 4 13 0 23 -9 26 -10 4 -11 10
-4 25 6 10 7 21 4 25 -3 3 -6 23 -6 43 1 59 -13 4 -20 -82 -4 -39 -10 -83 -13
-98 -5 -21 -2 -32 12 -43 14 -10 15 -14 4 -12 -13 3 -15 -28 -18 -214 l-2
-218 62 -2 c67 -1 97 -2 303 -6 88 -2 125 -5 115 -12 -8 -5 -10 -10 -5 -10 6
0 4 -4 -4 -9 -8 -6 -10 -14 -5 -22 12 -20 11 -41 -3 -64 -7 -11 -13 -33 -13
-50 l1 -30 15 28 c8 15 19 25 25 22 5 -4 6 -11 3 -17 -4 -6 1 -8 15 -3 16 5
20 3 15 -10 -4 -10 -13 -14 -28 -10 -15 5 -17 4 -7 -3 8 -6 11 -17 6 -32 -5
-15 -4 -20 4 -16 7 5 11 -2 11 -17 0 -21 -4 -24 -27 -19 -16 2 -34 9 -41 15
-17 13 -5 -21 16 -45 14 -16 12 -18 -23 -15 -23 1 -40 -3 -42 -10 -3 -9 7 -13
29 -14 l33 -1 -33 -8 c-43 -10 -50 -18 -24 -27 11 -5 21 -12 22 -18 3 -18 -35
-23 -59 -8 -18 12 -25 12 -31 3 -6 -10 -9 -10 -15 0 -6 9 -9 9 -15 0 -9 -15
-62 -21 -77 -8 -8 6 -19 6 -32 -1 -11 -6 -37 -11 -58 -12 -21 0 -47 -4 -58 -8
-33 -13 36 -16 428 -19 423 -3 497 -8 514 -31 21 -27 15 -37 -47 -80 -33 -23
-60 -48 -60 -54 1 -35 84 -97 147 -108 43 -8 143 -79 143 -102 0 -5 -8 1 -18
13 l-18 22 -56 -20 c-33 -12 -61 -16 -69 -11 -7 4 -19 3 -26 -2 -7 -6 -17 -8
-23 -4 -7 4 -18 -2 -26 -13 -10 -15 -24 -20 -44 -19 -17 1 -30 6 -30 10 0 5
-9 6 -20 2 -16 -5 -19 -3 -13 12 6 16 5 17 -12 3 -10 -8 -16 -10 -12 -3 7 12
-7 26 -31 29 -7 2 -36 -7 -63 -18 -40 -17 -51 -27 -56 -50 -4 -21 -11 -28 -29
-28 -21 0 -29 10 -25 33 2 13 -11 7 -24 -10 -13 -17 -101 -31 -91 -14 11 18
-27 21 -60 5 -36 -17 -63 -19 -309 -24 -248 -4 -104 -18 205 -19 467 -2 883
-12 923 -22 26 -7 37 -15 37 -29 0 -22 16 -35 25 -20 11 18 61 10 96 -16 19
-14 55 -37 81 -51 39 -21 46 -29 36 -40 -9 -12 -7 -14 13 -12 14 2 82 -26 166
-68 184 -91 385 -156 637 -204 55 -10 121 -30 148 -44 l48 -25 48 25 c26 14
57 25 69 25 13 0 23 4 23 8 0 5 24 14 53 20 216 46 370 91 556 166 63 25 119
42 124 39 6 -3 7 -1 3 5 -8 14 50 45 67 36 7 -4 9 -4 5 1 -9 9 238 165 261
165 13 0 13 2 3 9 -11 7 -10 9 3 14 9 4 13 3 10 -3 -4 -6 24 -10 74 -9 54 1
81 5 81 12 0 9 2 9 8 1 10 -16 44 -14 38 2 -4 11 70 14 402 16 224 1 480 1
570 -1 111 -2 162 1 162 8 0 7 -42 11 -125 11 -81 0 -125 4 -125 10 0 7 -6 8
-16 2 -10 -5 -32 -6 -53 -1 -22 5 -37 4 -39 -1 -4 -12 -103 -14 -100 -2 3 15
-15 42 -24 36 -6 -4 -15 0 -20 7 -7 11 -11 11 -14 2 -4 -8 -16 -10 -35 -6 -16
3 -29 1 -29 -4 0 -6 -11 -8 -25 -5 -17 3 -25 11 -26 26 0 14 -2 16 -6 6 -9
-23 -43 -53 -43 -38 -1 8 -6 7 -14 -5 -12 -16 -14 -16 -20 -1 -8 22 -8 24 8
24 29 0 27 21 -3 31 -17 6 -31 14 -31 18 0 14 -65 -2 -87 -21 -20 -18 -25 -19
-75 -6 -33 9 -66 11 -83 6 -18 -4 -34 -3 -42 4 -10 8 -13 7 -13 -2 0 -10 -4
-9 -17 2 -30 25 -53 30 -54 10 0 -10 -3 -12 -6 -4 -2 6 -9 9 -14 6 -13 -8 -39
14 -39 33 0 8 4 12 9 8 5 -3 17 5 26 17 18 27 26 27 36 1 6 -14 8 -11 9 12 1
26 3 27 10 10 5 -11 9 -14 9 -7 1 7 6 10 11 7 6 -3 10 -1 10 5 0 6 4 9 9 6 5
-3 31 9 57 27 60 39 67 70 28 116 -14 17 -43 40 -63 51 -22 12 -29 19 -18 20
23 0 22 15 -4 39 -20 19 -18 19 183 21 112 1 304 3 428 5 124 2 272 4 329 5
116 0 128 5 34 13 -34 3 -70 10 -80 15 -13 8 -21 6 -31 -6 -9 -12 -15 -14 -18
-5 -4 8 -16 10 -35 6 -34 -7 -39 4 -6 17 21 8 21 9 -5 9 -15 1 -30 -4 -33 -9
-4 -6 -11 -8 -16 -5 -5 4 -9 1 -9 -5 0 -8 -19 -9 -62 -4 -72 7 -85 15 -64 37
14 13 14 16 1 27 -8 7 -15 19 -15 26 0 8 -4 14 -10 14 -5 0 -10 -7 -10 -15 0
-8 -4 -15 -9 -15 -11 0 -25 30 -22 48 1 6 -3 12 -9 12 -5 0 -10 11 -10 25 0
23 -2 25 -21 14 -17 -9 -19 -13 -8 -20 11 -6 10 -9 -4 -15 -9 -3 -24 -1 -32 6
-16 13 -21 35 -6 26 5 -4 12 8 16 25 4 17 14 33 22 36 12 5 12 7 1 14 -9 6 -6
9 10 9 27 0 41 28 21 41 -9 6 -10 9 -2 9 6 0 24 5 40 11 l28 11 -24 19 -24 20
21 6 c25 6 27 14 11 30 -17 17 61 26 199 22 64 -2 150 -2 190 -1 l73 2 -2 92
c-1 81 -4 95 -22 107 -20 14 -20 14 4 23 l24 9 -25 14 c-15 9 -19 14 -10 15 9
0 16 9 16 20 0 15 -7 20 -26 20 l-25 0 24 13 c32 16 40 37 11 30 -18 -5 -19
-3 -11 20 7 16 6 28 -2 36 -8 8 -7 11 3 11 9 0 8 5 -6 15 -16 13 -17 16 -4 25
9 6 10 10 3 10 -8 0 -11 13 -8 40 3 29 0 42 -10 46 -9 4 -12 15 -9 32 5 27
-10 62 -21 51 -8 -8 -15 -45 -20 -99 -3 -39 -9 -73 -15 -90 -1 -3 -2 -8 -1
-12 0 -5 -7 -8 -17 -8 -15 -1 -15 -2 -1 -10 9 -5 16 -20 15 -32 -1 -19 -7 -23
-31 -23 -25 0 -30 3 -27 23 2 15 -2 22 -12 22 -20 0 -21 16 -1 24 21 8 19 26
-2 27 -11 0 -13 3 -5 6 18 7 15 31 -5 36 -10 3 -3 5 15 6 38 1 34 21 -4 21
-33 0 -29 29 6 47 14 7 20 13 14 13 -5 0 -19 7 -30 16 -10 8 -14 13 -8 10 6
-3 20 1 30 9 18 13 18 14 -9 20 -35 9 -35 31 1 41 20 5 23 8 9 11 -9 3 -15 9
-12 14 4 5 0 9 -7 9 -8 0 -14 15 -16 39 -2 31 2 40 15 44 17 4 17 5 0 6 -12 1
-17 9 -17 29 1 53 -13 133 -21 125 -5 -5 -10 -28 -11 -51 -1 -23 -6 -42 -12
-42 -7 0 -7 -3 -1 -8 6 -4 11 -15 11 -24 1 -13 -6 -18 -25 -18 -22 -1 -24 -2
-8 -11 25 -14 21 -29 -8 -29 -20 0 -25 5 -25 27 0 53 -10 14 -24 -91 -8 -59
-19 -113 -25 -120 -6 -7 -8 -16 -4 -19 10 -11 -16 -8 -38 3 -20 11 -27 50 -8
50 5 0 7 5 4 11 -4 5 1 19 10 29 15 17 15 19 -4 37 -26 24 -35 66 -21 93 7 14
8 25 2 33 -6 7 -11 134 -11 316 l-1 304 42 -6 c25 -4 35 -3 23 2 -31 12 56 21
234 22 l156 2 -145 9 c-92 5 -169 4 -212 -2 -115 -17 -108 -21 -108 68 0 104
-25 315 -51 425 -22 91 -68 236 -108 335 -12 31 -16 52 -10 52 6 0 2 8 -9 18
-12 9 -38 47 -59 84 -90 160 -248 358 -386 483 -134 121 -339 255 -453 294
l-29 11 25 -18 c156 -107 365 -277 466 -377 272 -271 412 -524 514 -925 48
-186 74 -435 48 -452 -17 -11 -31 -10 -24 1 4 5 -21 11 -54 13 -73 4 -82 -15
-19 -40 l40 -17 -6 -89 c-3 -49 -8 -93 -11 -98 -4 -5 -6 -37 -5 -70 0 -53 -1
-59 -17 -53 -9 3 -28 9 -42 12 -27 5 -38 37 -18 49 6 4 5 10 -3 15 -10 6 -11
9 -1 9 6 0 12 6 12 14 0 8 -6 17 -12 19 -20 8 11 27 31 19 13 -4 12 -1 -3 16
-10 12 -23 19 -27 16 -5 -3 -12 3 -16 12 -4 11 -2 19 6 22 7 2 24 15 38 28 25
23 25 24 4 24 -12 0 -21 6 -21 15 0 8 -7 15 -15 15 -8 0 -15 5 -15 10 0 6 7
10 15 10 8 0 15 5 15 10 0 6 -7 10 -15 10 -8 0 -15 4 -15 10 0 5 7 7 15 4 10
-4 15 0 15 15 0 12 -6 21 -15 21 -8 0 -15 5 -15 10 0 6 5 10 12 10 6 0 4 6 -6
13 -15 11 -18 29 -18 122 0 69 4 111 11 113 7 2 6 8 -2 17 -8 7 -21 53 -31
101 -39 199 -144 449 -254 603 -128 179 -293 343 -448 446 -38 26 -62 52 -96
112 -77 131 -173 230 -289 298 -78 45 -112 60 -229 96 -226 71 -451 100 -630
82z m179 -42 c10 -10 24 -41 29 -67 23 -106 43 -293 40 -369 l-3 -80 -51 -3
c-27 -2 -63 3 -80 9 -16 7 -33 13 -37 13 -4 1 -11 7 -16 14 -5 8 -12 13 -17
11 -5 -1 -15 9 -22 22 -15 28 -9 156 10 222 6 23 12 44 12 47 1 3 5 11 10 19
5 8 5 12 0 9 -5 -4 -9 18 -9 48 0 41 4 54 15 54 11 0 12 2 2 8 -9 6 -7 13 10
29 41 37 79 42 107 14z m-154 -26 c-26 -39 -52 -112 -69 -190 -11 -48 -12 -50
-28 -33 -16 16 -16 18 -2 18 8 0 12 5 9 10 -3 6 -2 10 3 10 6 0 12 20 14 45 2
26 -1 45 -7 45 -5 0 -4 4 3 9 8 4 13 10 12 12 -6 14 16 62 36 78 13 10 20 21
17 25 -3 3 3 6 15 6 21 0 21 0 -3 -35z m282 9 c60 -35 116 -110 152 -203 30
-79 61 -231 61 -304 0 -37 -1 -38 -27 -33 -16 3 -53 8 -83 12 -52 6 -108 22
-83 23 8 1 9 10 2 34 -5 17 -12 55 -14 82 -3 28 -9 59 -14 70 -5 11 -17 67
-26 125 -9 58 -26 128 -36 155 -10 28 -19 53 -19 58 0 15 45 6 87 -19z m151
-24 c106 -53 169 -122 234 -255 45 -93 109 -307 96 -320 -3 -3 -48 5 -99 17
-52 12 -86 24 -76 26 21 4 23 21 3 28 -8 3 -17 17 -21 32 -4 15 -12 41 -20 57
-7 17 -29 84 -50 150 -39 128 -91 222 -152 275 -49 44 -14 40 85 -10z m147
-19 c155 -73 321 -291 389 -509 37 -118 38 -115 -46 -86 -39 13 -79 24 -89 24
-13 0 -21 21 -39 98 -12 53 -36 131 -53 172 -29 71 -88 173 -108 186 -5 3 -9
10 -9 16 0 6 7 5 18 -3 9 -7 6 -1 -7 13 -13 15 -27 25 -31 23 -4 -3 -16 5 -26
17 -11 11 -37 34 -58 49 -52 39 -21 39 59 0z m138 -36 c29 -13 71 -40 92 -58
22 -19 45 -32 52 -30 6 2 47 -31 90 -74 126 -127 215 -297 230 -442 6 -49 5
-53 -12 -44 -11 7 -26 42 -40 99 -38 146 -117 297 -214 407 -67 74 -68 55 -2
-27 70 -88 128 -191 170 -301 30 -78 49 -155 38 -155 -3 0 -25 8 -49 19 -42
18 -44 21 -61 89 -24 92 -94 237 -159 326 -54 75 -71 93 -158 169 -61 53 -54
59 23 22z m-723 -75 c-15 -57 -21 -46 -8 15 6 28 13 45 15 38 2 -6 -1 -30 -7
-53z m283 -397 c-7 -2 -19 -2 -25 0 -7 3 -2 5 12 5 14 0 19 -2 13 -5z m1147
-193 c138 -136 226 -251 308 -404 86 -160 165 -385 161 -461 -1 -11 2 -44 6
-72 5 -41 4 -53 -6 -53 -10 0 -10 -3 -1 -12 18 -18 16 -127 -3 -134 -13 -5
-13 -10 3 -36 16 -28 16 -30 0 -42 -10 -7 -15 -16 -11 -19 3 -4 -3 -7 -15 -7
-12 0 -22 -4 -22 -10 0 -5 9 -10 20 -10 11 0 20 -4 20 -9 0 -5 3 -23 6 -40 6
-29 5 -31 -22 -32 -16 0 -23 -3 -16 -6 6 -2 10 -9 6 -14 -3 -5 2 -9 10 -9 23
0 20 -21 -4 -27 -25 -7 -25 -15 0 -31 29 -18 14 -42 -26 -42 -42 0 -44 -15 -3
-29 17 -6 28 -15 25 -20 -3 -5 2 -12 11 -15 27 -11 -1 -29 -54 -36 -58 -6 -71
-30 -16 -31 85 -1 106 -41 41 -76 -28 -16 -38 -18 -38 -8 0 8 -4 17 -10 20 -6
4 -10 -9 -10 -32 0 -28 3 -34 10 -23 15 23 12 6 -5 -26 -23 -44 -19 -51 35
-58 68 -9 65 -39 -4 -40 -17 -1 -31 -5 -32 -11 -1 -21 -25 -95 -30 -95 -3 0
-3 15 1 33 5 25 4 28 -5 15 -12 -20 -40 -24 -40 -7 0 6 5 19 10 30 6 10 8 19
6 19 -3 0 -12 -12 -20 -27 -8 -16 -15 -22 -16 -15 0 7 -5 10 -12 6 -8 -5 -9
-2 -3 12 16 37 18 96 4 105 -10 6 -11 9 -1 9 14 0 16 36 2 45 -6 3 -7 -1 -4
-9 4 -9 1 -16 -6 -16 -9 0 -11 10 -6 33 5 30 5 31 -9 13 -8 -11 -15 -26 -15
-33 0 -7 -4 -13 -9 -13 -15 0 -21 73 -9 107 10 27 8 38 -10 75 -11 24 -24 52
-27 63 -6 19 -7 19 -19 2 -8 -10 -20 -15 -29 -11 -10 3 -25 -4 -39 -18 -53
-55 -111 -73 -156 -49 -13 7 -26 10 -29 8 -3 -3 13 -15 35 -26 36 -18 52 -37
52 -61 0 -4 -19 -6 -42 -3 -55 7 -98 52 -98 102 0 35 -34 96 -58 106 -8 3 -16
-3 -19 -15 -4 -15 -11 -19 -24 -15 -14 5 -22 0 -29 -20 -8 -22 -6 -32 14 -58
33 -45 56 -92 57 -119 0 -22 1 -22 9 -3 8 18 9 17 9 -7 1 -20 13 -35 50 -61
54 -39 188 -193 183 -211 -2 -6 0 -8 4 -4 4 4 13 3 21 -3 7 -6 35 -13 63 -14
29 -2 63 -12 85 -25 33 -21 35 -24 29 -63 -4 -23 -13 -47 -20 -53 -16 -13 -19
-34 -4 -34 7 0 7 -6 0 -20 -10 -19 -11 -18 -61 6 -48 25 -51 25 -69 9 -13 -12
-29 -16 -47 -13 -16 3 -89 2 -163 -1 l-135 -7 50 -14 c27 -7 44 -15 37 -18
-23 -7 -12 -20 23 -26 19 -4 37 -12 41 -18 5 -7 3 -8 -6 -3 -7 4 -29 9 -49 11
-132 13 -145 13 -121 5 21 -7 16 -9 -26 -10 -29 -1 -65 -8 -80 -16 -16 -8 -37
-15 -46 -15 -10 0 -18 -4 -18 -10 0 -5 -9 -10 -19 -10 -11 0 -22 -4 -25 -9 -3
-5 -15 -7 -26 -4 -31 8 -32 20 -1 15 29 -4 91 38 91 63 0 21 -77 65 -125 72
-25 3 -50 12 -56 19 -8 10 -8 14 -1 14 6 0 14 -5 17 -10 9 -14 25 -12 25 3 0
7 -15 21 -32 31 -18 9 -25 14 -15 11 10 -3 15 -1 12 5 -21 35 44 27 72 -8 12
-16 13 -16 7 2 -6 16 -5 17 15 6 47 -25 33 3 -34 70 -48 47 -73 65 -78 57 -6
-8 -7 -6 -4 4 3 9 2 20 -3 25 -5 5 -12 26 -15 47 -7 33 -5 37 11 30 17 -6 17
-4 -2 20 -12 14 -27 47 -34 72 -7 25 -17 48 -23 52 -6 4 -7 1 -2 -7 5 -9 4
-11 -4 -6 -6 4 -18 20 -26 36 -9 17 -28 36 -44 45 -33 17 -52 72 -30 85 10 7
9 17 -6 52 -27 62 -32 65 -49 24 -8 -20 -22 -36 -30 -36 -8 0 -38 -28 -67 -62
-28 -35 -78 -86 -111 -115 -50 -43 -64 -50 -80 -42 -10 5 -18 7 -18 3 0 -3
-11 1 -25 10 -37 25 -44 19 -10 -10 l30 -25 -32 15 c-39 19 -49 34 -29 42 9 3
14 10 11 14 -3 5 -1 11 5 15 13 8 13 35 -1 35 -5 0 -8 -3 -6 -8 3 -4 -5 -20
-17 -35 -20 -24 -31 -29 -81 -32 -33 -1 -65 -1 -72 2 -23 9 -14 23 15 24 l27
0 -25 10 c-20 8 -22 12 -10 19 8 5 11 10 7 10 -5 0 -1 7 7 16 17 16 86 17 97
1 12 -17 41 25 34 50 -4 18 -2 24 7 20 7 -2 18 5 25 17 12 20 12 21 13 1 0
-11 -4 -35 -9 -53 -6 -20 -6 -30 0 -27 5 4 9 12 9 19 0 72 99 236 276 456 87
108 384 448 516 589 l60 64 -2 -34 c-1 -19 -1 -38 0 -44 3 -19 19 30 19 62 1
17 6 35 12 38 5 4 8 12 6 18 -2 7 5 27 15 46 22 39 55 144 91 286 28 110 26
137 -12 249 -12 33 -21 65 -21 73 0 25 119 -67 240 -187z m-2421 100 c-10 -41
-20 -95 -21 -120 -3 -72 20 -270 37 -328 9 -29 22 -110 30 -179 15 -133 25
-169 25 -86 0 59 17 113 35 113 7 0 44 -39 82 -87 38 -49 146 -171 239 -273
257 -280 499 -584 530 -666 9 -24 22 -44 28 -44 121 -3 168 -8 178 -18 17 -17
10 -20 -53 -25 -40 -4 -63 -1 -77 9 -19 13 -20 12 -20 -31 1 -46 -14 -75 -39
-75 -7 0 -13 -7 -11 -16 2 -10 -3 -19 -11 -22 -8 -3 -11 0 -7 7 5 7 1 9 -10 4
-15 -6 -15 -7 2 -20 17 -12 21 -11 41 14 13 15 23 22 23 16 0 -20 -39 -55 -53
-47 -7 4 -2 -4 11 -18 20 -22 21 -26 7 -32 -9 -3 -28 -6 -42 -6 -21 0 -24 -2
-13 -15 7 -8 19 -15 27 -15 8 0 11 -4 8 -10 -3 -5 -19 -10 -36 -10 -35 0 -35
-3 -8 -41 11 -16 16 -29 11 -29 -6 0 -13 7 -16 16 -4 9 -9 14 -12 11 -4 -3 5
-20 20 -37 14 -17 26 -36 26 -41 0 -5 8 -9 18 -9 9 0 22 -11 29 -25 14 -31 10
-31 -35 2 -20 15 -31 21 -24 13 6 -8 12 -19 12 -24 0 -6 -7 -2 -15 8 -8 10
-12 23 -9 28 4 6 -7 24 -23 41 -40 45 -73 94 -73 109 0 7 14 -3 30 -22 23 -27
27 -29 18 -10 -20 40 -76 107 -109 131 l-30 21 19 -32 c11 -17 29 -38 41 -46
24 -17 28 -34 6 -34 -9 0 -12 -6 -8 -16 5 -13 2 -15 -18 -9 -13 4 -26 12 -28
17 -2 6 -23 35 -48 65 -24 30 -57 74 -71 98 -38 62 -123 188 -135 200 -5 6 8
-21 29 -59 29 -55 34 -68 19 -63 -15 6 -16 5 -6 -7 6 -8 14 -24 16 -36 5 -26
15 -40 15 -21 0 6 12 -3 28 -21 54 -64 57 -69 44 -77 -8 -5 -1 -27 24 -74 20
-39 30 -67 23 -67 -8 0 -8 -4 1 -15 7 -8 18 -15 25 -15 6 0 20 -9 30 -20 10
-11 26 -20 35 -20 9 0 26 -11 38 -25 12 -14 28 -25 36 -25 17 0 29 -27 15 -36
-6 -3 7 -19 28 -35 39 -29 59 -37 48 -19 -3 6 -1 10 5 10 6 0 13 -6 16 -14 3
-8 33 -19 71 -26 70 -13 82 -8 83 33 0 25 27 32 49 13 10 -9 22 -16 27 -16 5
0 35 -20 68 -45 32 -24 63 -46 70 -48 8 -3 7 -9 -3 -20 -12 -15 -11 -17 8 -17
26 0 119 -27 141 -41 8 -5 24 -13 35 -18 12 -5 27 -16 34 -25 9 -11 31 -16 65
-17 28 0 45 -3 39 -6 -7 -2 -13 -16 -13 -30 0 -25 2 -25 46 -19 26 3 61 6 78
6 23 0 34 6 41 22 7 17 18 22 38 21 15 -1 27 2 27 8 0 5 7 9 15 9 13 0 14 -4
4 -21 -17 -33 2 -42 93 -41 l83 0 -55 -14 c-30 -8 -90 -17 -133 -19 -43 -3
-86 -9 -95 -14 -9 -5 -53 -12 -97 -15 -44 -4 -102 -8 -130 -11 -37 -3 -43 -2
-25 4 14 5 37 9 52 10 15 1 30 6 34 13 5 8 -8 9 -50 4 -47 -5 -58 -3 -63 10
-5 13 -7 13 -15 2 -7 -10 -13 -8 -28 10 -16 20 -25 22 -52 17 -18 -4 -38 -12
-45 -17 -7 -6 -19 -5 -33 2 -16 9 -25 8 -36 -1 -11 -9 -14 -9 -14 1 0 8 -8 10
-22 6 -37 -11 -68 -14 -68 -6 0 4 -18 6 -40 4 -22 -1 -42 1 -45 5 -2 5 12 8
33 8 35 0 109 29 100 39 -3 2 -31 6 -62 9 -52 4 -57 3 -46 -11 11 -13 9 -15
-21 -14 -46 1 -87 -4 -94 -12 -4 -3 -21 -2 -38 4 -18 5 -40 10 -49 10 -10 -1
-20 3 -23 8 -3 5 11 9 32 9 21 -1 52 1 68 5 17 4 44 8 62 10 32 4 78 25 56 26
-6 0 -19 3 -28 6 -10 4 -15 2 -13 -7 2 -11 -9 -13 -52 -11 -30 2 -57 6 -60 10
-8 11 -30 13 -30 3 0 -5 -7 -12 -16 -15 -8 -3 -12 -2 -9 4 3 6 -1 7 -9 4 -9
-3 -13 -11 -10 -16 4 -6 -2 -8 -15 -3 -12 4 -21 2 -21 -4 0 -6 8 -11 18 -12
10 0 12 -3 4 -6 -6 -2 -32 5 -55 16 -24 12 -54 21 -66 21 -29 0 -102 20 -116
32 -17 15 -27 8 -23 -17 3 -14 2 -28 -2 -30 -11 -7 -20 22 -14 43 5 14 4 14
-5 2 -9 -12 -17 -11 -58 9 -26 13 -68 25 -92 28 -24 2 -51 8 -60 14 -12 8 -11
9 9 4 21 -6 20 -3 -10 18 -19 13 -61 37 -94 52 -32 15 -66 35 -75 44 -21 20
-84 57 -134 77 -20 9 -36 22 -35 29 4 20 -69 65 -105 65 -22 1 -37 8 -50 25
-13 18 -14 25 -5 26 7 0 4 4 -8 9 -12 4 -31 29 -43 54 -11 25 -25 46 -30 46
-5 0 -34 24 -65 54 -44 44 -52 55 -38 61 14 5 13 8 -8 18 -27 14 -37 44 -46
144 -6 62 -4 74 10 79 21 8 21 22 0 26 -14 2 -17 21 -20 107 -3 99 -7 121 -19
109 -3 -3 -6 -75 -7 -161 -1 -86 -4 -161 -8 -167 -12 -19 -55 -8 -52 13 2 9
-2 25 -7 35 -8 13 -10 7 -11 -30 0 -53 -5 -59 -37 -47 -24 9 -32 39 -10 39 8
0 7 4 -3 10 -12 7 -13 13 -3 28 9 15 9 22 0 31 -14 14 -2 14 24 1 26 -15 24
-6 -7 25 -21 21 -23 29 -14 40 9 11 9 15 1 15 -6 0 -11 5 -11 11 0 7 10 9 25
7 30 -6 32 3 5 20 -27 17 -15 44 16 36 32 -8 31 4 -1 16 -14 5 -25 17 -25 26
0 15 2 15 25 0 37 -24 65 -21 65 8 0 19 -7 25 -42 32 -37 8 -43 13 -46 38 -2
16 2 32 9 37 10 6 10 13 2 31 -14 30 -15 66 -1 74 7 4 6 9 -1 13 -7 5 -12 39
-13 84 -1 56 -4 74 -13 67 -6 -5 -11 -32 -10 -61 1 -34 -3 -53 -12 -56 -10 -4
-12 -20 -7 -59 5 -48 3 -54 -13 -54 -17 -1 -17 -2 2 -16 12 -9 16 -18 10 -22
-6 -4 -10 -14 -10 -22 0 -10 -9 -14 -29 -13 -16 1 -30 4 -33 6 -9 9 -20 188
-17 280 3 118 38 235 119 402 91 188 184 322 325 469 73 76 221 209 226 203 1
-1 -6 -36 -17 -77z m2221 -105 c0 -5 -5 -3 -10 5 -5 8 -10 20 -10 25 0 6 5 3
10 -5 5 -8 10 -19 10 -25z m-70 5 c8 -5 11 -10 5 -10 -5 0 -17 5 -25 10 -8 5
-10 10 -5 10 6 0 17 -5 25 -10z m-583 -70 c-6 -22 8 -28 16 -7 2 6 4 1 4 -13
0 -14 1 -29 2 -35 2 -5 3 -32 2 -60 -1 -36 -4 -46 -11 -35 -5 8 -15 15 -22 15
-16 0 -20 136 -4 147 17 12 19 10 13 -12z m329 3 c7 -10 14 -30 14 -45 0 -16
5 -28 10 -28 6 0 8 -19 6 -46 -7 -73 -60 -114 -106 -84 -10 6 -11 10 -3 10 18
0 43 65 43 111 0 24 5 39 13 40 10 0 10 2 0 6 -16 6 -17 53 -2 53 7 0 18 -8
25 -17z m-108 -10 c5 -10 8 -45 6 -78 -1 -33 -3 -71 -3 -84 -1 -21 -4 -23 -38
-16 -61 11 -63 30 -14 138 28 61 35 67 49 40z m-395 -82 c-10 -15 -19 20 -14
54 l5 40 6 -45 c3 -25 4 -47 3 -49z m727 -15 c0 -39 -53 -146 -72 -146 -12 0
-10 14 4 28 18 18 -3 14 -24 -5 -20 -17 -26 -5 -6 15 16 16 38 81 38 115 0 38
19 58 42 43 12 -7 18 -23 18 -50z m-1813 -13 c-2 -16 -4 -5 -4 22 0 28 2 40 4
28 2 -13 2 -35 0 -50z m1730 40 c-39 -143 -48 -163 -66 -154 -10 6 -21 8 -24
5 -3 -3 -15 -3 -28 1 -16 5 -18 9 -8 15 7 5 17 6 23 3 5 -3 6 -1 2 6 -4 6 4
25 18 42 14 17 26 41 26 54 0 20 18 34 58 44 2 1 1 -7 -1 -16z m127 -8 c-4 -8
-8 -15 -10 -15 -2 0 -4 7 -4 15 0 8 4 15 10 15 5 0 7 -7 4 -15z m-1944 -50 c0
-13 -4 -27 -10 -30 -6 -4 -10 8 -10 30 0 22 4 34 10 30 6 -3 10 -17 10 -30z
m1150 0 c8 -2 -47 -3 -123 -3 -75 0 -139 3 -142 7 -4 7 232 4 265 -4z m797 -7
c-3 -8 -6 -5 -6 6 -1 11 2 17 5 13 3 -3 4 -12 1 -19z m-959 -15 c-10 -2 -26
-2 -35 0 -10 3 -2 5 17 5 19 0 27 -2 18 -5z m120 0 c-16 -2 -40 -2 -55 0 -16
2 -3 4 27 4 30 0 43 -2 28 -4z m145 -10 c-13 -2 -33 -2 -45 0 -13 2 -3 4 22 4
25 0 35 -2 23 -4z m682 -23 c-4 -12 -9 -19 -12 -17 -3 3 -2 15 2 27 4 12 9 19
12 17 3 -3 2 -15 -2 -27z m-505 6 c52 -8 129 -24 170 -35 41 -12 86 -22 100
-22 22 -2 22 -2 4 -6 -12 -2 -57 5 -100 16 -44 11 -126 27 -184 36 -131 20
-141 22 -110 24 14 0 68 -6 120 -13z m-242 -23 c-10 -2 -26 -2 -35 0 -10 3 -2
5 17 5 19 0 27 -2 18 -5z m222 -17 c52 -8 82 -14 65 -14 -16 0 -79 5 -140 12
-60 8 -90 14 -65 14 25 0 88 -5 140 -12z m277 -42 c-3 -3 -12 -4 -19 -1 -8 3
-5 6 6 6 11 1 17 -2 13 -5z m110 0 c-3 -3 -12 -4 -19 -1 -8 3 -5 6 6 6 11 1
17 -2 13 -5z m-70 -10 c-3 -3 -12 -4 -19 -1 -8 3 -5 6 6 6 11 1 17 -2 13 -5z
m-667 -122 c0 -62 -26 -230 -73 -473 -14 -68 -30 -157 -37 -196 -12 -72 -12
-73 -38 -67 -35 9 -41 14 -15 14 11 0 20 7 20 15 0 8 -4 15 -9 15 -19 0 -6 20
15 21 17 1 18 2 4 6 -9 2 -15 9 -12 14 4 5 0 9 -8 9 -34 0 -39 26 -38 212 2
281 20 431 58 474 19 21 63 32 106 25 4 0 7 5 7 12 0 8 4 7 10 -3 5 -8 10 -43
10 -78z m278 73 c11 -10 -41 -161 -113 -327 -45 -106 -106 -258 -134 -337 -66
-184 -68 -188 -88 -168 -14 14 -14 23 1 94 10 43 24 110 32 148 25 116 35 149
52 168 8 9 16 25 17 35 3 26 14 70 40 152 13 41 26 93 30 115 4 22 17 54 29
70 12 17 26 38 29 49 6 16 14 17 55 11 26 -4 48 -8 50 -10z m164 -34 c-3 -12
0 -12 12 -1 14 11 16 8 16 -24 0 -44 -33 -111 -112 -228 -72 -108 -244 -400
-289 -490 -33 -68 -45 -80 -55 -54 -6 16 44 148 86 226 66 123 160 327 160
346 0 8 5 14 11 14 5 0 7 5 4 10 -3 6 -1 10 5 10 6 0 8 5 5 10 -3 6 -2 10 4
10 5 0 15 17 22 38 24 74 85 154 113 150 12 -2 20 -10 18 -17z m133 -61 c-8
-13 7 -13 40 0 l27 10 -25 -44 c-13 -24 -80 -113 -149 -198 -133 -164 -218
-278 -317 -426 -34 -51 -66 -90 -72 -86 -20 12 152 302 275 462 39 52 86 115
104 140 73 102 92 126 93 116 0 -5 4 1 9 14 5 12 12 22 15 22 4 0 3 -4 0 -10z
m69 -123 c-11 -12 -81 -92 -156 -177 -75 -85 -148 -166 -164 -180 l-28 -25 22
30 c11 17 44 54 71 83 28 30 51 60 51 69 0 15 211 233 219 226 3 -2 -5 -13
-15 -26z m-2596 -400 c4 -43 6 -42 -42 -22 -43 18 -44 25 -8 47 37 22 46 18
50 -25z m2 -99 c0 -25 -42 -23 -66 3 -14 16 -15 22 -5 28 20 12 71 -10 71 -31z
m-17 -58 c18 -16 26 -30 19 -30 -7 0 -10 -4 -7 -10 3 -5 2 -10 -4 -10 -5 0
-13 5 -16 10 -3 6 -12 10 -18 10 -7 -1 1 -11 17 -24 15 -13 24 -26 19 -29 -11
-7 -53 36 -53 53 0 6 -4 10 -10 10 -5 0 -10 5 -10 11 0 6 7 8 17 5 15 -6 15
-4 -2 14 -31 34 10 26 48 -10z m67 -40 c0 -5 -2 -10 -4 -10 -3 0 -8 5 -11 10
-3 6 -1 10 4 10 6 0 11 -4 11 -10z m-216 -47 l28 -15 -21 -19 c-20 -19 -21
-34 -6 -84 4 -16 -18 -41 -42 -47 -13 -4 -23 -5 -24 -5 0 1 -3 46 -6 100 l-5
99 24 -7 c12 -4 36 -14 52 -22z m266 17 c12 -8 8 -10 -15 -11 -16 -1 -22 -3
-13 -6 9 -2 16 -13 15 -24 -1 -12 -6 -18 -15 -14 -7 3 -17 5 -22 5 -4 0 -10
14 -12 30 -4 27 -2 30 21 30 14 0 33 -5 41 -10z m110 0 c8 -5 11 -10 5 -10 -5
0 -17 5 -25 10 -8 5 -10 10 -5 10 6 0 17 -5 25 -10z m3609 -245 l1 -215 -25 0
c-14 0 -25 5 -25 10 0 6 6 10 13 10 9 0 9 2 -1 9 -10 6 -15 57 -19 196 -6 196
-4 204 38 205 15 0 17 -24 18 -215z m-3853 199 c29 -8 41 -72 17 -89 -11 -8
-13 -14 -5 -19 7 -4 12 -18 12 -32 0 -20 -5 -24 -29 -24 -17 0 -33 5 -36 10
-3 6 1 10 11 10 13 0 14 3 5 14 -6 7 -11 24 -10 37 0 13 -2 41 -5 62 -6 39 -2
42 40 31z m-312 -69 c-1 -76 -6 -108 -19 -117 -7 -5 -7 -8 0 -8 14 0 6 -90 -9
-90 -6 0 -4 -5 4 -10 28 -19 -11 -30 -88 -25 -94 5 -132 21 -132 57 0 19 6 28
20 30 20 3 20 4 -3 30 -20 23 -24 39 -26 113 l-2 86 128 -3 128 -3 -1 -60z
m432 18 c-7 -7 -46 16 -46 28 0 5 11 2 25 -7 14 -9 24 -19 21 -21z m-376 12
c0 -9 -9 -15 -22 -14 -13 0 -17 3 -9 6 11 5 11 7 0 14 -10 6 -8 9 9 9 13 0 22
-6 22 -15z m374 -36 c-8 -14 -34 -10 -34 5 0 9 7 12 20 9 11 -3 17 -9 14 -14z
m3566 11 c13 -9 13 -11 0 -20 -22 -15 -30 -12 -30 10 0 22 8 25 30 10z m-3947
-7 c-7 -2 -19 -2 -25 0 -7 3 -2 5 12 5 14 0 19 -2 13 -5z m-3 -33 c0 -11 -7
-20 -15 -20 -8 0 -15 9 -15 20 0 11 7 20 15 20 8 0 15 -9 15 -20z m377 -20 c1
-11 -2 -20 -8 -20 -5 0 -9 2 -9 4 0 2 -3 11 -6 20 -4 10 -1 16 8 16 7 0 14 -9
15 -20z m-373 -25 c-4 -8 -12 -15 -20 -15 -8 0 -14 7 -14 15 0 8 9 15 20 15
13 0 18 -5 14 -15z m-7 -31 c-3 -3 -12 -4 -19 -1 -8 3 -5 6 6 6 11 1 17 -2 13
-5z m133 -14 c0 -11 -3 -20 -7 -20 -5 0 -7 -33 -5 -74 3 -67 1 -75 -18 -89
-12 -9 -19 -20 -15 -26 4 -7 -3 -11 -16 -11 -19 0 -21 4 -16 39 2 21 15 53 28
70 25 34 21 52 -6 24 -17 -16 -17 -16 -10 7 4 14 13 30 21 36 19 15 18 24 -2
24 -12 0 -11 5 7 20 31 25 39 25 39 0z m30 0 c0 -5 -5 -10 -11 -10 -5 0 -7 5
-4 10 3 6 8 10 11 10 2 0 4 -4 4 -10z m140 -51 c0 -14 -7 -19 -28 -19 -23 0
-30 6 -40 33 -17 47 -17 47 28 25 26 -13 40 -27 40 -39z m-307 44 c-7 -2 -19
-2 -25 0 -7 3 -2 5 12 5 14 0 19 -2 13 -5z m7 -23 c0 -5 -6 -10 -14 -10 -8 0
-18 5 -21 10 -3 6 3 10 14 10 12 0 21 -4 21 -10z m-2 -47 c-4 -22 -22 -20 -26
1 -2 10 3 16 13 16 10 0 15 -7 13 -17z m563 -44 c13 -26 11 -29 -22 -22 -22 4
-26 10 -25 33 1 24 4 27 18 19 10 -5 23 -19 29 -30z m-561 1 c0 -5 -7 -10 -15
-10 -8 0 -15 5 -15 10 0 6 7 10 15 10 8 0 15 -4 15 -10z m468 -3 c6 -6 13 -24
17 -40 6 -21 4 -27 -9 -27 -16 0 -42 38 -32 47 3 4 1 12 -5 20 -9 10 -8 13 4
13 8 0 19 -6 25 -13z m-540 -34 c12 -12 12 -16 0 -31 -26 -30 -29 -40 -10 -38
22 1 19 -40 -5 -66 -9 -10 -12 -18 -7 -18 18 0 3 -71 -17 -83 -21 -13 -25 -33
-8 -39 9 -3 9 -10 -1 -27 -6 -13 -8 -26 -3 -30 4 -3 10 -22 12 -41 1 -19 7
-39 12 -44 15 -16 11 -23 -15 -28 -24 -5 -25 -3 -24 42 0 69 -13 179 -22 185
-9 5 -22 -97 -19 -150 0 -16 0 -45 -2 -63 -2 -28 -5 -31 -23 -26 -54 17 -85
83 -39 84 17 1 17 1 0 15 -13 9 -17 20 -12 34 4 14 1 23 -9 27 -9 3 -14 10
-11 15 3 4 22 -1 43 -12 21 -12 29 -14 18 -5 -19 16 -19 16 5 17 22 0 23 1 4
9 l-20 9 20 1 c18 0 18 2 -5 20 -14 11 -32 20 -41 20 -9 0 -19 8 -23 18 -3 9
-9 23 -12 30 -4 9 7 11 42 10 30 -2 48 1 51 10 3 7 -4 12 -17 12 -31 0 -80 38
-80 61 0 15 5 19 19 14 10 -3 23 1 31 10 10 12 8 16 -14 25 -14 5 -26 11 -26
14 0 2 -3 11 -6 19 -7 20 18 24 121 18 50 -2 84 -9 93 -18z m350 -24 l2 -44
-23 27 c-29 36 -31 68 -2 64 16 -2 20 -11 23 -47z m-278 1 c0 -5 -9 -10 -20
-10 -11 0 -20 5 -20 10 0 6 9 10 20 10 11 0 20 -4 20 -10z m580 -16 c0 -2 -9
0 -20 6 -11 6 -20 13 -20 16 0 2 9 0 20 -6 11 -6 20 -13 20 -16z m2709 2 c44
6 51 4 85 -26 20 -18 45 -50 55 -71 17 -34 17 -38 2 -44 -13 -6 -12 -8 7 -16
24 -9 29 -24 11 -35 -13 -8 -50 36 -42 48 2 5 1 7 -4 6 -14 -4 -114 63 -112
75 1 7 -1 20 -6 30 -6 14 -10 15 -16 6 -11 -19 -39 7 -38 35 1 17 2 18 6 3 4
-15 12 -17 52 -11z m693 7 c26 -5 48 -35 31 -40 -5 -2 -8 -19 -7 -38 2 -34 1
-35 -37 -35 -36 0 -39 2 -39 29 0 24 5 29 32 35 35 7 29 22 -11 28 -14 2 -25
11 -27 21 -2 14 2 17 14 12 9 -3 29 -9 44 -12z m-1480 -45 c-7 -7 -12 -28 -12
-48 0 -26 -4 -37 -15 -37 -11 0 -13 7 -8 26 9 37 33 84 41 77 3 -4 0 -12 -6
-18z m-2502 -19 c0 -29 -19 -32 -30 -4 -13 34 -13 34 10 28 11 -3 20 -14 20
-24z m559 14 c0 -11 -3 -13 -6 -5 -2 6 -9 10 -14 6 -5 -3 -9 0 -9 5 0 6 7 11
15 11 8 0 15 -8 14 -17z m3561 -44 c0 -51 0 -51 -22 -37 -14 10 -22 27 -24 51
-3 34 -1 37 21 37 23 0 25 -3 25 -51z m-2052 15 c2 -1 -5 -7 -15 -13 -15 -7
-26 -5 -48 9 l-28 19 44 -6 c24 -3 46 -7 47 -9z m93 -13 c30 -24 19 -39 -13
-17 -12 9 -32 16 -43 15 -19 0 -19 -1 3 -11 25 -12 31 -34 6 -24 -8 3 -13 2
-10 -2 3 -5 -14 -8 -37 -8 -23 -1 -34 1 -24 3 9 3 15 9 12 14 -6 9 52 49 71
49 7 0 22 -9 35 -19z m1684 9 c7 -11 -51 -43 -68 -37 -7 2 4 14 23 25 41 26
37 25 45 12z m-3200 -18 c-3 -3 -11 0 -18 7 -9 10 -8 11 6 5 10 -3 15 -9 12
-12z m1375 -30 c-1 -15 -3 -15 -17 3 -13 16 -15 17 -10 3 4 -10 2 -18 -3 -18
-5 0 -9 11 -8 24 2 20 5 23 20 15 10 -5 18 -17 18 -27z m1980 -12 c0 -5 -4
-10 -9 -10 -6 0 -13 5 -16 10 -3 6 1 10 9 10 9 0 16 -4 16 -10z m114 -16 c17
-17 21 -34 8 -34 -9 0 -52 38 -52 45 0 11 30 4 44 -11z m-119 -45 c-5 -39 -6
-40 -33 -32 -37 9 -25 63 14 63 20 0 23 -4 19 -31z m-1508 7 c-3 -8 -1 -17 6
-19 7 -3 0 -9 -14 -15 -15 -6 -36 -23 -48 -38 -15 -19 -21 -22 -21 -10 0 17
16 48 40 78 17 21 45 24 37 4z m1004 -34 c-6 -2 -8 -9 -5 -15 4 -7 -3 -2 -16
9 -29 28 -17 54 12 27 11 -10 15 -19 9 -21z m334 22 c-8 -9 -25 -35 -37 -58
l-21 -41 -8 30 c-12 44 -1 73 29 78 53 8 54 8 37 -9z m-3181 -16 c-3 -5 2 -15
12 -22 15 -11 13 -12 -14 -8 -31 4 -45 21 -19 23 10 0 10 2 0 6 -21 8 -15 22
7 16 11 -3 17 -10 14 -15z m2030 -10 c-4 -7 -2 -8 4 -4 11 7 32 -23 32 -46 0
-10 -3 -9 -11 2 -9 12 -10 10 -6 -8 4 -19 3 -21 -8 -12 -8 6 -11 18 -8 26 3 8
0 14 -6 14 -6 0 -11 12 -11 26 0 14 4 23 10 19 6 -4 7 -11 4 -17z m1454 -55
c2 -50 1 -52 -19 -45 -29 11 -40 78 -12 68 17 -6 17 -5 1 8 -24 18 -22 28 5
24 19 -3 22 -10 25 -55z m-1578 33 c0 -8 -8 -14 -17 -14 -10 0 -27 -3 -38 -7
-11 -4 -6 2 10 13 36 25 45 26 45 8z m-620 -14 c0 -4 -5 -13 -12 -20 -9 -9 -8
-12 5 -12 9 0 17 -7 17 -15 0 -14 -3 -13 -23 2 -15 11 -22 24 -19 35 4 18 32
26 32 10z m2060 -1 c0 -4 -11 -6 -25 -3 -14 2 -25 6 -25 8 0 2 11 4 25 4 14 0
25 -4 25 -9z m-1343 -23 c-3 -8 -6 -5 -6 6 -1 11 2 17 5 13 3 -3 4 -12 1 -19z
m-102 2 c3 -5 2 -10 -4 -10 -5 0 -13 5 -16 10 -3 6 -2 10 4 10 5 0 13 -4 16
-10z m1276 -24 c-12 -12 -19 -25 -15 -28 3 -3 -8 -9 -25 -13 -36 -8 -40 -21
-10 -30 12 -4 18 -12 15 -21 -3 -8 0 -14 7 -14 8 0 7 -4 -3 -11 -13 -9 -12
-10 3 -5 9 3 24 9 32 12 10 4 15 0 15 -10 0 -11 -9 -16 -32 -16 -17 0 -28 -3
-25 -7 8 -8 -22 -43 -36 -43 -6 0 -2 7 9 16 18 15 17 15 -13 10 -18 -3 -33 -2
-33 3 0 5 -18 12 -39 16 l-39 7 16 45 c11 29 26 50 42 57 14 6 33 18 43 26 10
8 21 15 25 16 4 0 14 3 22 7 54 20 70 14 41 -17z m519 19 c0 -9 -7 -18 -15
-21 -8 -4 -13 -10 -10 -14 3 -5 1 -11 -5 -15 -15 -9 -12 -25 5 -25 9 0 15 -10
15 -26 0 -22 -4 -25 -27 -22 -25 3 -26 6 -28 71 l-3 67 34 0 c24 0 34 -5 34
-15z m-355 -44 c-6 -5 -21 -12 -35 -15 -24 -7 -24 -6 -6 8 21 17 57 23 41 7z
m-1701 -22 c-3 -5 7 -9 23 -7 32 2 76 -19 68 -32 -4 -6 2 -7 12 -3 16 6 16 5
4 -10 -16 -20 -31 -22 -31 -4 0 7 -16 13 -38 15 -20 1 -38 7 -40 12 -2 6 -15
10 -28 10 -22 0 -32 18 -19 32 9 9 55 -4 49 -13z m1854 -89 c3 -43 3 -43 -20
-28 -13 8 -25 24 -27 34 -3 18 -2 18 19 -1 l23 -20 -12 23 c-6 12 -16 22 -21
22 -6 0 -10 10 -10 21 0 20 2 20 23 7 16 -11 23 -27 25 -58z m-318 45 c-7 -9
-15 -13 -19 -10 -3 3 1 10 9 15 21 14 24 12 10 -5z m-1793 -7 c18 -7 33 -17
33 -24 0 -27 -13 -44 -34 -44 -28 0 -94 65 -74 73 22 9 40 8 75 -5z m2276 -25
c-7 -2 -19 -2 -25 0 -7 3 -2 5 12 5 14 0 19 -2 13 -5z m-4490 -51 c-7 -46 -7
-45 -32 -37 -18 5 -51 51 -51 69 0 5 71 13 82 8 4 -1 4 -19 1 -40z m85 36 c-3
-7 -12 -14 -21 -16 -12 -2 -15 1 -11 12 7 19 38 22 32 4z m52 -32 c-5 -15 -22
-38 -37 -51 -27 -23 -27 -24 -6 -25 12 0 25 -4 28 -10 10 -15 -18 -12 -43 6
-30 21 -28 37 8 51 17 6 30 16 30 22 0 9 -5 9 -21 1 -11 -7 -24 -9 -27 -5 -10
10 21 26 40 21 10 -2 21 0 24 5 3 5 0 9 -6 9 -6 0 -8 5 -4 11 13 21 25 -7 14
-35z m2498 24 c-9 -14 -14 -16 -20 -7 -5 8 -8 5 -9 -8 0 -11 -3 -14 -6 -7 -5
13 -33 17 -33 4 0 -4 5 -13 12 -20 7 -7 10 -12 8 -12 -3 -1 -39 -3 -80 -6 -85
-6 -86 5 -2 30 28 8 62 22 74 30 12 9 33 16 45 16 21 0 22 -2 11 -20z m226
-19 c16 -9 39 -22 51 -28 34 -19 47 -40 40 -63 -9 -28 -29 -20 -35 13 -5 28
-43 62 -100 89 -23 12 -27 16 -10 12 14 -4 38 -14 54 -23z m1299 8 c-6 -6 -17
-8 -24 -3 -9 5 -8 9 7 14 23 9 31 3 17 -11z m346 12 c10 -6 10 -10 1 -16 -9
-6 -9 -9 1 -16 10 -6 5 -11 -15 -19 -31 -12 -49 -5 -26 10 13 9 13 10 0 10
-13 0 -13 1 0 10 10 6 11 10 3 10 -7 0 -13 5 -13 10 0 12 30 13 49 1z m-357
-53 c-7 -7 -12 -8 -12 -2 0 14 12 26 19 19 2 -3 -1 -11 -7 -17z m243 3 c-3 -6
2 -14 11 -19 15 -8 15 -10 -1 -16 -17 -6 -17 -7 1 -22 18 -14 18 -15 -4 -4
-12 6 -26 8 -31 5 -5 -2 -9 11 -9 30 0 28 4 35 20 35 10 0 17 -4 13 -9z m-676
-12 c32 -11 32 -11 10 -27 -19 -13 -24 -13 -48 0 -14 9 -32 13 -38 11 -7 -3
-13 0 -13 5 0 22 43 27 89 11z m-998 -23 c14 -13 43 -27 67 -31 53 -9 98 -30
83 -40 -6 -3 -26 -2 -44 4 -17 5 -57 12 -87 16 -30 3 -73 9 -95 12 l-40 7 35
6 c20 3 34 11 33 18 -2 7 2 12 8 12 5 0 7 5 4 10 -12 19 12 10 36 -14z m-71 4
c8 -5 11 -10 5 -10 -5 0 -17 5 -25 10 -8 5 -10 10 -5 10 6 0 17 -5 25 -10z
m1670 -57 c0 -16 -17 -17 -26 -1 -4 7 -9 26 -11 43 l-3 30 20 -30 c11 -16 20
-36 20 -42z m194 59 c2 -4 2 -13 -2 -18 -11 -16 -41 -24 -47 -13 -4 5 1 12 10
15 13 6 14 8 3 15 -9 6 -7 9 9 9 12 0 24 -4 27 -8z m-4674 -11 c0 -6 -17 -26
-37 -46 -37 -35 -37 -36 -11 -29 41 9 53 -4 28 -31 -21 -22 -21 -24 -3 -34 17
-10 17 -12 1 -25 -10 -7 -18 -21 -18 -30 0 -20 -7 -20 -26 -1 -9 8 -13 15 -9
15 4 0 -1 7 -9 16 -15 14 -14 17 6 34 l23 19 -25 -6 c-22 -6 -23 -4 -12 9 15
19 12 39 -8 55 -13 11 -13 12 2 13 9 0 21 7 26 15 4 9 21 20 38 24 16 5 30 10
32 10 1 1 2 -3 2 -8z m160 -6 c0 -8 -5 -15 -11 -15 -8 0 -8 -5 1 -15 7 -8 9
-15 4 -15 -10 0 -9 -98 0 -136 4 -16 2 -24 -6 -25 -7 0 -4 -4 7 -9 11 -5 14
-9 7 -9 -7 -1 -10 -6 -6 -12 3 -6 0 -15 -7 -20 -17 -11 -29 -11 -28 -1 5 27
-3 42 -22 42 -19 0 -19 1 -4 16 9 9 14 23 11 30 -4 9 2 14 17 15 21 0 21 1 4
12 -10 7 -26 17 -35 24 -15 11 -15 11 4 7 28 -7 41 22 14 31 -10 3 -23 12 -29
19 -8 10 -4 12 22 9 l32 -4 -27 25 c-33 29 -36 40 -9 31 11 -3 22 -1 26 5 9
15 35 12 35 -5z m4410 -35 c13 -9 13 -10 0 -10 -8 0 -22 5 -30 10 -13 9 -13
10 0 10 8 0 22 -5 30 -10z m-4283 -35 c-4 -8 -12 -15 -19 -14 -10 0 -10 2 0 6
6 2 12 12 12 21 0 8 3 13 6 9 4 -3 4 -13 1 -22z m2858 5 c3 -5 -1 -10 -9 -10
-8 0 -18 5 -21 10 -3 6 1 10 9 10 8 0 18 -4 21 -10z m1425 -19 c0 -12 -31 -23
-39 -15 -3 4 0 9 7 11 10 4 10 8 0 21 -12 13 -10 14 10 3 12 -6 22 -16 22 -20z
m87 8 c-14 -8 -22 -8 -30 0 -8 8 -3 11 19 11 25 -1 27 -2 11 -11z m4 -37 c-7
-2 -18 1 -23 6 -8 8 -4 9 13 5 13 -4 18 -8 10 -11z m-2628 -13 c20 -5 37 -16
37 -23 0 -7 17 -18 38 -24 21 -7 49 -24 63 -39 l24 -27 -25 15 c-14 9 -46 21
-72 28 -26 8 -54 21 -63 31 -9 10 -23 16 -30 14 -7 -3 -23 0 -36 6 -17 10 -19
14 -8 21 18 11 26 11 72 -2z m1426 -28 c-6 -2 -18 4 -27 13 -15 15 -15 15 10
4 15 -7 23 -15 17 -17z m1106 19 c-3 -5 -13 -10 -21 -10 -8 0 -12 5 -9 10 3 6
13 10 21 10 8 0 12 -4 9 -10z m-4292 -7 c-7 -2 -19 -2 -25 0 -7 3 -2 5 12 5
14 0 19 -2 13 -5z m4192 -13 c-3 -5 3 -13 12 -19 10 -6 14 -11 9 -11 -12 0
-46 30 -46 41 0 5 7 6 15 3 8 -4 13 -10 10 -14z m340 0 c18 -8 19 -9 1 -9 -12
-1 -16 -6 -12 -16 4 -12 2 -14 -11 -7 -19 11 -27 42 -10 41 7 0 21 -4 32 -9z
m-2838 -6 c-3 -3 -12 -4 -19 -1 -8 3 -5 6 6 6 11 1 17 -2 13 -5z m2708 -4 c3
-5 -3 -10 -14 -10 -12 0 -21 5 -21 10 0 6 6 10 14 10 8 0 18 -4 21 -10z m-130
-10 c3 -5 -1 -10 -10 -10 -9 0 -13 5 -10 10 3 6 8 10 10 10 2 0 7 -4 10 -10z
m-3509 -51 c15 -30 15 -30 -5 -19 -12 6 -21 14 -22 18 0 4 -2 15 -4 25 -5 24
12 11 31 -24z m3754 16 c10 -13 9 -15 -9 -15 -12 0 -21 6 -21 15 0 8 4 15 9
15 5 0 14 -7 21 -15z m-4826 -20 c-7 -17 -20 -20 -28 -6 -4 5 0 12 6 14 23 9
28 7 22 -8z m2266 5 c0 -5 -4 -10 -9 -10 -6 0 -13 5 -16 10 -3 6 1 10 9 10 9
0 16 -4 16 -10z m-1955 -10 c3 -5 2 -10 -4 -10 -5 0 -13 5 -16 10 -3 6 -2 10
4 10 5 0 13 -4 16 -10z m2354 3 c-3 -18 3 -20 40 -13 22 4 46 3 53 -1 7 -5 11
-9 8 -9 -55 -6 -120 -5 -120 2 0 4 -18 8 -41 8 -24 0 -38 4 -34 10 7 11 96 14
94 3z m48 1 c-3 -3 -12 -4 -19 -1 -8 3 -5 6 6 6 11 1 17 -2 13 -5z m1878 -4
c-3 -5 -14 -10 -23 -9 -14 0 -13 2 3 9 27 11 27 11 20 0z m260 -10 c-3 -5 -11
-10 -16 -10 -6 0 -7 5 -4 10 3 6 11 10 16 10 6 0 7 -4 4 -10z m-4837 -22 c-3
-7 -13 -15 -24 -17 -16 -3 -17 -1 -5 13 16 19 34 21 29 4z m2815 5 c-7 -2 -19
-2 -25 0 -7 3 -2 5 12 5 14 0 19 -2 13 -5z m1870 0 c-7 -2 -19 -2 -25 0 -7 3
-2 5 12 5 14 0 19 -2 13 -5z m-4687 -70 c-11 -11 -19 6 -11 24 8 17 8 17 12 0
3 -10 2 -21 -1 -24z m1426 0 c32 -21 82 -55 110 -76 29 -21 64 -40 78 -43 14
-3 34 -9 45 -14 11 -4 34 -13 50 -19 39 -16 107 -62 100 -69 -3 -3 -14 3 -25
13 -15 13 -23 15 -33 7 -10 -9 -22 -5 -50 13 -20 14 -38 21 -41 16 -7 -10 -54
-2 -62 10 -3 5 -15 9 -27 9 -18 0 -19 2 -7 10 13 8 12 10 -3 10 -11 0 -17 6
-15 17 2 11 -6 20 -22 24 -14 4 -44 13 -68 20 -24 7 -51 22 -60 33 -21 26 -59
56 -48 39 5 -9 2 -11 -8 -7 -25 9 -9 38 23 43 3 1 31 -16 63 -36z m-57 -41
c-3 -3 -11 0 -18 7 -9 10 -8 11 6 5 10 -3 15 -9 12 -12z m-480 -2 c-27 -12
-43 -12 -25 0 8 5 22 9 30 9 10 0 8 -3 -5 -9z m61 -32 l29 -33 -32 29 c-31 28
-38 36 -30 36 2 0 16 -15 33 -32z m374 -28 c9 0 38 -20 65 -45 27 -24 61 -47
76 -50 24 -6 151 -94 164 -115 3 -6 -1 -10 -9 -10 -9 0 -16 5 -16 10 0 6 -7
10 -15 10 -8 0 -15 7 -15 16 0 13 -3 14 -13 5 -10 -8 -23 -1 -53 30 -24 25
-46 39 -59 37 -11 -1 -31 5 -44 14 -13 10 -28 15 -33 12 -5 -3 -13 9 -19 26
-6 17 -14 29 -17 26 -3 -3 -10 2 -17 11 -7 9 -27 21 -45 27 -19 6 -35 16 -37
23 -3 7 12 3 34 -8 20 -10 44 -19 53 -19z m-347 -4 c3 3 23 -10 44 -30 21 -20
41 -36 44 -36 4 0 14 -11 22 -24 l16 -24 -39 19 c-21 10 -46 29 -54 41 -9 12
-16 19 -16 15 0 -5 -16 4 -35 19 -39 29 -48 53 -12 29 13 -8 26 -12 30 -9z
m-293 -53 c0 -13 -3 -13 -15 -3 -8 7 -12 16 -9 21 8 13 24 1 24 -18z m-133 11
c-3 -3 -12 -4 -19 -1 -8 3 -5 6 6 6 11 1 17 -2 13 -5z m2660 -40 c-7 -7 -1409
-6 -1416 1 -2 3 317 5 709 5 392 0 711 -3 707 -6z m406 -11 c-18 -2 -48 -2
-65 0 -18 2 -4 4 32 4 36 0 50 -2 33 -4z m-2438 -48 c22 -14 50 -25 62 -25 31
0 163 -74 141 -78 -10 -2 -18 -7 -18 -12 0 -13 -33 0 -43 17 -4 7 -14 13 -20
13 -7 0 -19 9 -27 20 -15 20 -40 27 -40 11 0 -5 -8 -7 -18 -4 -21 5 -80 53
-66 53 5 0 0 7 -10 15 -32 24 -5 17 39 -10z m1555 -5 c0 -11 -107 -6 -118 4
-3 3 22 6 56 6 36 0 62 -4 62 -10z m60 0 c0 -5 -10 -10 -22 -9 -22 0 -22 1 -3
9 11 5 21 9 23 9 1 1 2 -3 2 -9z m-895 -29 c3 -5 1 -13 -5 -16 -6 -4 -9 -2 -8
4 2 5 -6 17 -17 26 -20 16 -20 16 2 5 12 -5 24 -14 28 -19z m1138 -2 c29 2 37
-1 31 -11 -5 -8 -1 -8 11 2 11 9 16 10 11 3 -5 -10 19 -13 111 -14 123 -2 124
-4 10 -14 -64 -6 -67 -8 -48 -21 13 -9 45 -15 88 -15 37 0 84 -3 103 -7 l35
-6 -50 -7 c-27 -4 -85 -8 -128 -8 -74 -1 -77 -2 -61 -18 15 -15 40 -17 218
-16 227 2 237 -11 16 -20 -80 -4 -158 -11 -175 -16 -29 -8 -29 -8 18 -16 26
-4 57 -5 69 -2 12 4 17 2 12 -3 -5 -5 -27 -10 -49 -13 -22 -2 3 -5 55 -6 52
-2 118 -6 145 -10 l50 -7 -40 -11 c-22 -7 -57 -15 -77 -19 -34 -6 -54 -24 -27
-24 20 0 3 -24 -22 -31 -24 -7 -24 -7 3 -8 15 -1 29 3 33 8 3 6 24 9 46 9 49
0 43 -9 -19 -25 l-47 -12 56 3 c69 5 98 -8 38 -18 -23 -4 -54 -16 -69 -26 -16
-11 -36 -20 -46 -20 -16 0 -16 1 2 14 17 13 15 14 -28 14 -29 0 -52 -5 -59
-14 -10 -12 -9 -13 5 -8 9 3 16 1 16 -5 0 -6 -3 -11 -7 -12 -5 0 -15 -2 -23
-5 -8 -2 -28 -6 -45 -10 -16 -3 -39 -9 -50 -14 -11 -5 -38 -11 -60 -15 -22 -3
-51 -8 -65 -11 -14 -2 -72 -8 -130 -13 -105 -8 -105 -8 -30 -10 53 -1 71 -4
60 -11 -12 -8 -9 -10 13 -10 17 0 27 5 27 15 0 12 13 15 58 14 45 0 52 -2 34
-10 -13 -5 -21 -13 -18 -18 3 -5 -9 -11 -27 -14 -84 -15 -103 -21 -123 -40
-12 -11 -31 -22 -43 -24 -35 -5 -59 -21 -66 -43 -6 -19 -18 -25 -40 -20 -5 1
-34 2 -62 2 -29 0 -53 3 -53 7 0 3 -48 4 -107 1 -60 -3 -112 -2 -117 1 -5 4
-32 5 -60 2 l-51 -5 29 16 c36 20 136 33 136 18 0 -6 -12 -13 -27 -15 -26 -4
-26 -4 5 -6 17 0 32 4 32 9 0 12 36 13 58 1 11 -6 38 -5 71 1 55 10 92 15 124
17 9 0 17 5 17 10 0 5 -24 11 -54 13 -40 2 -52 0 -49 -9 4 -10 -16 -13 -83
-11 l-89 2 70 6 c41 3 -14 6 -135 6 -113 0 -180 -3 -150 -6 l55 -6 -69 -8
c-56 -7 -75 -6 -104 8 -25 12 -37 14 -42 6 -5 -8 -9 -6 -14 5 -3 9 -3 21 0 27
3 5 -3 12 -15 15 -15 4 -21 13 -21 34 0 16 -5 29 -11 29 -6 0 -9 7 -5 15 3 9
0 15 -10 15 -8 0 -12 5 -9 10 3 6 -2 11 -12 12 -10 0 -23 2 -30 2 -18 2 -28
16 -12 16 8 0 -1 8 -18 16 -18 9 -30 20 -27 25 3 5 -10 1 -29 -10 -29 -16 -38
-17 -59 -7 -27 15 -112 20 -104 7 6 -9 -74 5 -83 15 -3 2 1 10 8 17 11 9 14 9
18 0 3 -7 16 -13 29 -13 21 0 23 3 14 19 -13 26 -13 31 4 31 9 0 13 10 12 25
-1 18 -7 25 -21 25 -11 0 -30 7 -41 15 -15 10 -55 15 -125 18 -61 1 -17 4 106
6 180 3 408 15 367 19 -7 1 -21 10 -30 19 -16 16 -16 16 0 11 9 -4 29 -3 45 2
23 7 18 9 -32 10 -33 1 -73 2 -90 1 l-30 -2 23 20 c15 13 18 21 10 24 -7 3 24
6 69 6 45 1 94 6 110 13 26 11 23 13 -47 19 -41 4 -122 10 -180 14 -58 4 -107
9 -109 11 -2 2 42 4 98 4 56 0 111 5 122 11 11 5 34 12 52 14 40 6 194 7 227
2 34 -5 206 10 255 22 25 6 131 8 275 4 129 -3 252 -5 273 -4z m-2613 -39 c0
-5 -4 -10 -10 -10 -5 0 -10 5 -10 10 0 6 5 10 10 10 6 0 10 -4 10 -10z m3724
-5 c-4 -8 -10 -12 -15 -9 -11 6 -2 24 11 24 5 0 7 -7 4 -15z m-2519 -52 l40
-7 -39 -7 c-25 -4 -48 -2 -65 7 l-26 14 25 0 c14 0 43 -3 65 -7z m241 -21 c1
-7 0 -8 -3 -2 -3 7 -28 9 -66 6 -45 -4 -54 -3 -32 3 42 13 98 9 101 -7z m-313
-19 c-3 -7 -9 -10 -14 -7 -14 8 -11 21 5 21 8 0 12 -6 9 -14z m2157 1 c0 -25
-86 -183 -136 -250 -84 -112 -296 -275 -456 -349 -208 -96 -348 -125 -633
-132 -276 -7 -438 15 -660 88 -105 35 -317 144 -400 206 -129 96 -280 266
-339 381 -35 68 -8 52 48 -28 77 -109 200 -237 306 -316 148 -112 410 -227
610 -268 136 -28 382 -41 537 -28 229 20 333 47 528 142 203 98 385 249 486
402 32 49 65 106 75 128 18 41 34 52 34 24z m613 -24 c-6 -21 -18 -26 -28 -11
-4 7 17 28 32 31 0 0 -1 -9 -4 -20z m-846 -26 c-3 -3 -12 -4 -19 -1 -8 3 -5 6
6 6 11 1 17 -2 13 -5z m-2152 -55 c24 -5 23 -23 -1 -27 -10 -3 -14 0 -10 7 4
6 0 11 -8 11 -9 0 -16 8 -16 18 0 11 3 13 8 6 4 -7 16 -13 27 -15z m69 -64 c3
-8 1 -15 -4 -15 -6 0 -10 7 -10 15 0 8 2 15 4 15 2 0 6 -7 10 -15z m2606 -211
c14 -16 13 -17 -15 -10 -34 8 -300 136 -329 158 -10 8 -16 20 -12 26 8 13 333
-145 356 -174z m-2853 140 c5 -14 -275 -147 -294 -140 -26 10 -2 27 131 91
129 63 156 71 163 49z m2258 -14 c-3 -5 -14 -10 -23 -9 -14 0 -13 2 3 9 27 11
27 11 20 0z m-1492 -40 c8 0 7 -4 -1 -12 -9 -9 -16 -8 -30 6 -16 18 -16 19 1
12 10 -3 24 -6 30 -6z m63 -27 c16 -21 18 -37 4 -28 -13 8 -33 45 -24 45 4 0
13 -8 20 -17z m1214 -13 c0 -5 -19 -9 -42 -9 -40 1 -41 2 -13 9 44 11 55 11
55 0z m68 -7 c-10 -2 -26 -2 -35 0 -10 3 -2 5 17 5 19 0 27 -2 18 -5z m-2168
-97 c119 -115 199 -180 317 -260 226 -152 451 -241 764 -303 l143 -28 56 -52
57 -52 59 58 c57 56 63 59 134 71 114 19 290 66 398 106 279 104 481 232 700
445 92 90 122 109 122 77 0 -19 -152 -167 -254 -247 -181 -141 -371 -248 -566
-317 -102 -36 -312 -90 -394 -100 -41 -6 -59 -15 -107 -60 -31 -28 -67 -57
-79 -64 -24 -13 -20 -15 -115 71 -38 33 -50 37 -201 67 -336 65 -563 165 -833
364 -104 78 -311 273 -311 294 0 24 34 3 110 -70z m839 70 c9 -11 8 -15 -4
-20 -10 -3 -14 -2 -10 5 4 6 0 9 -10 7 -10 -2 -20 3 -22 10 -6 17 32 16 46 -2z
m1704 -84 c-37 -31 -68 -48 -59 -33 4 6 1 11 -6 11 -7 0 10 20 37 44 46 41 50
42 53 23 3 -14 -6 -29 -25 -45z m-2403 13 c12 -13 17 -25 12 -29 -15 -9 -39 3
-55 28 -13 20 -13 22 3 23 10 1 28 -9 40 -22z m820 1 c0 -3 -4 -8 -10 -11 -5
-3 -10 -1 -10 4 0 6 5 11 10 11 6 0 10 -2 10 -4z m44 -57 c14 -11 24 -25 21
-30 -4 -5 -2 -9 3 -9 6 0 12 -7 16 -15 4 -13 2 -13 -14 -5 -10 5 -27 10 -37
10 -12 0 -19 7 -19 21 0 19 1 19 13 3 7 -10 15 -15 18 -12 10 10 -6 35 -28 46
-12 6 -17 11 -11 11 6 1 23 -8 38 -20z m223 15 c-3 -3 -12 -4 -19 -1 -8 3 -5
6 6 6 11 1 17 -2 13 -5z m1128 -49 c1 -20 6 -31 18 -33 35 -7 15 -22 -25 -20
-30 2 -42 -1 -40 -9 1 -7 3 -18 5 -24 6 -29 -21 -15 -45 23 -30 47 -29 52 16
79 44 28 71 22 71 -16z m-1980 -15 c3 -5 0 -10 -8 -10 -7 0 -21 -16 -30 -35
-9 -19 -21 -35 -27 -35 -14 0 -13 14 4 55 9 21 11 37 5 40 -5 4 -9 11 -9 16 0
11 55 -15 65 -31z m525 5 c0 -5 -5 -3 -10 5 -5 8 -10 20 -10 25 0 6 5 3 10 -5
5 -8 10 -19 10 -25z m824 -13 c4 -2 2 -8 -5 -13 -21 -13 -26 -11 -32 10 -5 19
7 20 37 3z m-373 -12 c19 0 -1 -18 -24 -22 -28 -5 -56 18 -29 25 9 3 23 3 30
1 8 -2 18 -4 23 -4z m-901 -15 c31 -16 40 -35 16 -35 -7 0 -19 -13 -26 -30 -7
-16 -19 -30 -26 -30 -18 0 -18 4 3 48 12 26 14 37 5 40 -12 4 -17 22 -7 22 4
0 19 -7 35 -15z m1756 0 c-11 -8 -23 -15 -28 -15 -4 0 -8 -9 -8 -20 0 -21 15
-27 25 -10 3 6 12 10 18 10 7 0 4 -7 -5 -14 -36 -27 -17 -47 24 -25 35 19 31
2 -5 -20 -19 -11 -37 -21 -40 -21 -3 0 -17 20 -30 45 l-26 45 37 20 c44 23 65
26 38 5z m-2676 -9 c0 -3 -4 -8 -10 -11 -5 -3 -10 -1 -10 4 0 6 5 11 10 11 6
0 10 -2 10 -4z m75 -16 c3 -5 -3 -10 -14 -10 -12 0 -21 5 -21 10 0 6 6 10 14
10 8 0 18 -4 21 -10z m3322 -6 c-3 -3 -12 -4 -19 -1 -8 3 -5 6 6 6 11 1 17 -2
13 -5z m128 -4 c15 -6 11 -7 -17 -7 -23 1 -33 4 -25 9 14 9 16 9 42 -2z
m-2471 -38 c6 -11 -21 -103 -34 -116 -18 -18 -20 1 -5 44 21 60 19 70 -9 35
-29 -37 -47 -25 -24 15 10 18 13 32 7 35 -5 4 -7 11 -4 16 6 9 59 -13 69 -29z
m2521 20 c-3 -3 -11 0 -18 7 -9 10 -8 11 6 5 10 -3 15 -9 12 -12z m-986 -41
c33 -78 25 -94 -22 -41 -15 17 -22 30 -16 30 7 0 8 11 4 30 -10 47 10 35 34
-19z m1301 28 c0 -5 -16 -9 -35 -9 -19 0 -35 4 -35 8 0 4 16 8 35 9 19 1 35
-3 35 -8z m-1361 -73 c12 -18 21 -36 21 -40 0 -14 -34 -4 -66 21 l-35 26 7
-29 c4 -16 11 -39 15 -51 7 -20 -5 -42 -17 -31 -8 9 -27 118 -21 124 3 3 19
-1 36 -9 30 -15 30 -15 21 4 -19 35 17 22 39 -15z m-1354 -23 c3 -27 10 -58
15 -70 8 -19 6 -23 -9 -23 -20 0 -37 46 -32 85 3 18 0 17 -26 -7 -16 -16 -35
-28 -42 -28 -10 0 -9 7 4 28 50 77 81 83 90 15z m1220 -33 c40 -40 43 -60 7
-41 -32 17 -42 13 -42 -14 0 -16 -6 -25 -15 -25 -11 0 -15 13 -15 53 0 81 9
84 65 27z m-1097 13 c-1 -10 0 -31 0 -48 l2 -29 40 39 c22 21 42 36 46 32 10
-10 -77 -97 -98 -97 -15 0 -18 8 -18 60 0 46 3 60 15 60 8 0 14 -8 13 -17z
m932 -57 c12 -43 13 -44 43 -35 39 11 49 3 13 -11 -71 -26 -72 -26 -83 34 -5
31 -7 58 -5 61 10 9 20 -6 32 -49z m-731 18 c3 -4 -6 -4 -21 0 -24 5 -28 3
-28 -14 0 -13 7 -20 20 -20 11 0 20 -4 20 -8 0 -5 -10 -8 -22 -8 -13 1 -24 -6
-26 -16 -2 -12 5 -17 30 -20 53 -5 38 -23 -17 -19 -27 1 -51 4 -52 5 -2 1 16
94 22 113 4 12 60 2 74 -13z m626 -10 c26 -27 14 -48 -35 -60 -35 -8 -46 -16
-48 -33 -7 -45 -27 -13 -30 47 l-3 62 50 0 c32 0 55 -6 66 -16z m-532 -39 l-6
-44 42 -7 c55 -9 39 -26 -20 -22 -38 3 -44 6 -47 27 -6 39 8 91 23 91 12 0 13
-10 8 -45z"/>
<path d="M3284 4467 c3 -15 8 -38 11 -52 3 -14 9 -25 14 -25 5 0 3 21 -5 47
-16 52 -29 72 -20 30z"/>
<path d="M3346 2889 c-20 -23 -50 -68 -66 -100 -16 -32 -39 -64 -51 -73 -20
-13 -21 -18 -9 -45 13 -32 34 -44 23 -13 -5 14 -3 15 7 5 10 -10 11 -15 1 -27
-10 -12 -7 -23 15 -58 76 -120 99 -148 143 -176 26 -16 55 -44 65 -63 61 -115
83 -147 118 -165 28 -15 103 -22 114 -11 6 5 33 -7 76 -37 16 -10 35 -15 45
-12 15 6 15 8 3 16 -23 14 -4 23 47 22 72 -3 33 16 -52 25 l-70 7 51 7 c34 4
59 15 79 33 29 27 27 33 -5 16 -13 -7 -19 -6 -24 5 -3 9 0 15 9 15 48 0 -47
61 -123 80 -29 6 -55 16 -58 21 -3 5 -10 6 -16 3 -7 -4 -8 -2 -4 4 7 12 -16
76 -31 85 -5 3 -20 -22 -33 -56 -36 -94 -46 -94 -12 0 27 72 29 87 20 124 -7
26 -18 43 -29 46 -15 4 -59 78 -59 99 0 17 -74 137 -78 126 -8 -24 -56 62 -56
101 0 20 -1 37 -2 37 0 0 -17 -19 -38 -41z m4 -76 c0 -27 -3 -34 -11 -26 -7 7
-9 23 -5 37 9 37 16 32 16 -11z m-46 -112 c6 -34 6 -34 -14 -16 -20 18 -27 55
-13 69 9 9 19 -10 27 -53z m339 -370 c-3 -11 -11 -22 -19 -25 -11 -4 -11 0 2
19 20 30 24 31 17 6z"/>
<path d="M2560 2550 c0 -6 7 -10 15 -10 8 0 15 2 15 4 0 2 -7 6 -15 10 -8 3
-15 1 -15 -4z"/>
<path d="M4198 2468 c6 -8 8 -18 4 -23 -4 -4 0 -6 8 -3 22 7 18 32 -5 37 -16
3 -17 1 -7 -11z"/>
<path d="M3388 2393 c7 -3 16 -2 19 1 4 3 -2 6 -13 5 -11 0 -14 -3 -6 -6z"/>
<path d="M3485 2270 c10 -11 20 -20 23 -20 3 0 -3 9 -13 20 -10 11 -20 20 -23
20 -3 0 3 -9 13 -20z"/>
<path d="M3381 2254 c0 -11 3 -14 6 -6 3 7 2 16 -1 19 -3 4 -6 -2 -5 -13z"/>
<path d="M3444 2235 c26 -23 49 -35 68 -35 17 0 27 4 23 10 -8 12 -71 45 -105
54 -22 6 -20 2 14 -29z"/>
<path d="M4020 2250 c8 -5 20 -10 25 -10 6 0 3 5 -5 10 -8 5 -19 10 -25 10 -5
0 -3 -5 5 -10z"/>
<path d="M3990 2240 c8 -5 20 -10 25 -10 6 0 3 5 -5 10 -8 5 -19 10 -25 10 -5
0 -3 -5 5 -10z"/>
<path d="M3925 2190 c11 -5 16 -9 10 -10 -16 -1 38 -29 58 -30 10 0 17 7 17
19 0 19 -36 32 -84 30 -20 0 -21 -1 -1 -9z"/>
<path d="M3318 2133 c7 -3 16 -2 19 1 4 3 -2 6 -13 5 -11 0 -14 -3 -6 -6z"/>
<path d="M3845 2110 c-7 -12 22 -12 50 0 17 7 15 9 -12 9 -17 1 -35 -3 -38 -9z"/>
<path d="M1674 2958 c-16 -18 -37 -49 -48 -68 -10 -20 -47 -57 -83 -84 -46
-34 -61 -51 -52 -56 10 -7 10 -11 0 -24 -8 -9 -20 -16 -27 -16 -15 0 -19 -16
-6 -24 5 -3 6 -22 3 -43 -5 -29 -11 -37 -25 -35 -10 2 -15 -1 -12 -7 4 -5 -4
-11 -16 -14 -22 -3 -22 -4 -3 -13 11 -5 21 -19 23 -32 3 -31 18 -45 127 -122
51 -36 120 -84 154 -108 34 -23 61 -38 61 -32 0 15 56 12 72 -3 18 -19 59 -40
65 -34 2 3 -12 18 -31 34 -38 30 -43 43 -25 72 12 18 4 99 -8 87 -7 -7 -33 13
-33 26 0 5 6 6 13 3 6 -4 3 1 -7 9 -11 9 -25 16 -30 16 -6 0 -4 -5 4 -10 8 -5
11 -10 5 -10 -27 0 -37 19 -31 55 5 24 3 42 -6 52 -12 15 -11 15 9 5 12 -7 26
-20 32 -30 5 -9 13 -14 16 -10 4 4 -7 28 -24 54 -17 26 -31 56 -31 66 0 11 -4
17 -8 14 -12 -7 -69 41 -59 50 4 4 13 2 19 -4 23 -23 31 -12 9 11 -18 20 -20
29 -12 50 6 15 16 25 23 23 7 -1 10 -1 6 1 -5 3 -8 19 -8 36 0 22 3 28 9 18 5
-7 11 -9 14 -4 3 5 -3 17 -14 26 -10 9 -19 29 -20 44 0 16 -4 36 -8 47 -6 16
-10 15 -37 -16z m90 -347 c-8 -9 -34 10 -34 25 0 16 2 16 19 -2 10 -10 17 -21
15 -23z m-143 -4 l-23 -22 17 28 c10 15 20 25 23 22 3 -3 -5 -16 -17 -28z"/>
<path d="M1721 2771 c-8 -5 -9 -11 -3 -15 5 -3 12 1 16 9 6 17 6 18 -13 6z"/>
<path d="M1352 2758 c-7 -7 -12 -18 -12 -25 0 -7 -6 -13 -13 -13 -7 0 -32 -14
-55 -30 -28 -21 -39 -36 -35 -47 4 -11 2 -14 -8 -11 -8 3 -13 11 -11 17 1 7
-2 10 -8 6 -6 -4 -17 -1 -25 5 -12 10 -15 9 -15 -4 0 -9 -4 -16 -10 -16 -14 0
-13 -37 2 -46 8 -5 9 -2 4 11 -5 14 -4 16 7 7 14 -12 16 -39 4 -59 -11 -17 15
-31 43 -22 23 7 24 8 5 14 -26 8 -33 55 -9 55 11 0 14 -5 10 -16 -4 -11 -2
-15 8 -11 8 3 22 -1 33 -8 17 -14 17 -14 -2 -15 -12 0 1 -11 35 -28 31 -15 54
-33 52 -40 -1 -8 2 -11 7 -8 5 4 23 -6 40 -20 27 -22 31 -23 28 -7 -2 10 -11
32 -20 50 -21 40 -21 44 1 37 13 -5 12 -2 -5 13 -11 10 -24 27 -27 38 -3 12
-4 9 -2 -7 4 -32 -9 -36 -35 -12 -17 16 -17 18 17 51 28 27 35 41 32 64 -1 16
3 33 9 37 10 6 9 13 -3 30 -17 25 -25 27 -42 10z"/>
<path d="M1750 2752 c0 -15 27 -82 34 -82 6 0 -10 54 -23 77 -6 10 -11 12 -11
5z"/>
<path d="M1735 2690 c3 -5 8 -10 11 -10 2 0 4 5 4 10 0 6 -5 10 -11 10 -5 0
-7 -4 -4 -10z"/>
<path d="M2538 2653 c17 -2 47 -2 65 0 17 2 3 4 -33 4 -36 0 -50 -2 -32 -4z"/>
<path d="M2445 2611 c2 -24 9 -49 16 -55 9 -8 10 -6 4 9 -4 11 -11 36 -16 55
-8 33 -8 33 -4 -9z"/>
<path d="M2116 2600 c15 -31 15 -34 1 -21 -10 7 -17 9 -17 3 0 -5 7 -15 15
-22 8 -6 13 -17 12 -22 -1 -6 4 -13 12 -16 10 -3 12 0 7 13 -3 10 -3 23 2 29
5 7 -3 23 -21 41 l-29 30 18 -35z"/>
<path d="M1850 2609 c0 -18 9 -29 40 -54 13 -11 20 -13 14 -5 -36 51 -54 71
-54 59z"/>
<path d="M2037 2533 c10 -29 14 -34 23 -28 6 4 4 14 -3 25 -15 25 -29 26 -20
3z"/>
<path d="M2339 2511 c25 -16 48 -37 53 -45 5 -9 19 -21 31 -27 21 -12 21 -11
5 8 -10 11 -18 24 -18 29 0 6 -21 21 -47 34 -69 35 -74 36 -24 1z"/>
<path d="M1860 2523 c0 -5 34 -42 77 -83 48 -48 69 -64 57 -44 -21 34 -134
142 -134 127z"/>
<path d="M1350 2429 c0 -13 61 -69 74 -69 6 0 25 -15 43 -32 25 -24 36 -29 42
-20 6 10 10 10 21 -3 7 -8 19 -15 26 -15 17 0 18 -17 2 -23 -7 -3 5 -5 27 -5
22 0 32 2 23 5 -10 2 -32 18 -50 35 -22 21 -27 29 -13 24 17 -6 17 -4 -4 18
-14 15 -31 26 -38 26 -8 0 -33 10 -56 22 -72 38 -97 48 -97 37z m165 -89 c3
-5 1 -10 -4 -10 -6 0 -11 5 -11 10 0 6 2 10 4 10 3 0 8 -4 11 -10z"/>
<path d="M1385 2331 c-3 -5 -1 -12 5 -16 5 -3 10 1 10 9 0 18 -6 21 -15 7z"/>
<path d="M2004 2261 c15 -19 40 -43 54 -54 15 -11 48 -41 74 -66 26 -24 50
-42 53 -39 3 3 -23 29 -57 59 -35 29 -83 71 -107 93 -42 38 -43 39 -17 7z"/>
<path d="M1665 2181 c16 -17 34 -30 40 -28 5 3 24 -2 40 -11 l30 -15 -19 22
c-11 11 -25 21 -33 21 -7 0 -13 7 -13 15 0 8 -6 15 -12 15 -7 0 -24 3 -38 7
l-25 6 30 -32z"/>
<path d="M2205 2185 c11 -9 19 -20 18 -25 -1 -4 5 -14 14 -22 14 -11 16 -11 8
2 -6 8 -10 19 -10 24 0 5 -11 15 -25 23 -24 15 -24 14 -5 -2z"/>
<path d="M2073 2108 c11 -10 32 -18 48 -18 17 0 34 -8 43 -22 9 -12 19 -19 23
-15 13 14 -33 47 -72 52 -21 3 -43 9 -50 13 -6 4 -2 -1 8 -10z"/>
<path d="M2098 2123 c6 -2 18 -2 25 0 6 3 1 5 -13 5 -14 0 -19 -2 -12 -5z"/>
<path d="M2290 2110 c8 -5 20 -10 25 -10 6 0 3 5 -5 10 -8 5 -19 10 -25 10 -5
0 -3 -5 5 -10z"/>
<path d="M2356 2096 c3 -9 11 -16 16 -16 13 0 5 23 -10 28 -7 2 -10 -2 -6 -12z"/>
<path d="M1916 2085 c4 -8 10 -13 14 -10 5 3 11 -1 13 -7 4 -10 6 -10 6 0 1 7
6 10 13 6 7 -4 8 -3 4 5 -4 6 -12 9 -17 6 -5 -4 -9 -1 -9 4 0 6 -7 11 -15 11
-9 0 -12 -6 -9 -15z"/>
<path d="M2023 2077 c20 -16 7 -34 -15 -21 -10 5 -10 4 0 -7 10 -11 15 -11 28
3 15 15 14 17 -7 28 -22 10 -22 10 -6 -3z"/>
<path d="M1830 2070 c0 -5 18 -18 39 -28 30 -15 38 -16 34 -5 -3 7 -18 20 -34
28 -33 18 -39 18 -39 5z"/>
<path d="M2200 2062 c0 -20 32 -42 62 -42 25 0 28 2 18 14 -6 8 -18 12 -26 9
-8 -3 -24 3 -34 12 -11 10 -20 13 -20 7z"/>
<path d="M2306 2052 c-3 -6 -2 -13 4 -17 14 -8 13 -26 -1 -22 -6 1 -14 -4 -16
-11 -4 -11 -1 -12 15 -3 29 16 33 25 18 46 -8 12 -15 14 -20 7z"/>
<path d="M2500 2039 c0 -5 5 -7 10 -4 6 3 10 8 10 11 0 2 -4 4 -10 4 -5 0 -10
-5 -10 -11z"/>
<path d="M1965 2010 c21 -24 83 -55 91 -47 3 3 -4 8 -15 12 -12 3 -21 10 -21
15 0 9 -52 40 -66 40 -4 0 1 -9 11 -20z"/>
<path d="M2560 2021 c0 -5 5 -13 10 -16 6 -3 10 -2 10 4 0 5 -4 13 -10 16 -5
3 -10 2 -10 -4z"/>
<path d="M2660 2009 c-24 -10 -24 -11 -6 -25 24 -17 36 -18 37 -1 1 6 4 1 8
-13 4 -14 15 -27 25 -28 14 -3 17 0 13 12 -5 13 1 16 31 17 l37 1 -50 16 c-27
9 -51 20 -53 24 -4 10 -11 9 -42 -3z"/>
<path d="M2490 1979 c0 -5 -4 -8 -9 -5 -5 3 -11 -1 -15 -9 -7 -20 1 -19 31 5
19 15 21 20 9 20 -9 0 -16 -5 -16 -11z"/>
<path d="M2580 1980 c-14 -4 -38 -11 -55 -15 -22 -5 -26 -9 -15 -14 25 -14 90
-1 101 20 11 21 7 22 -31 9z"/>
<path d="M2303 1962 c-32 -3 -45 -24 -23 -37 6 -3 10 -2 10 4 0 5 21 9 47 8
36 -2 48 2 51 14 3 16 -12 18 -85 11z"/>
<path d="M2625 1945 c-16 -13 -26 -24 -22 -25 14 0 67 33 67 42 0 14 -14 9
-45 -17z"/>
<path d="M2415 1950 c3 -5 11 -10 16 -10 6 0 7 5 4 10 -3 6 -11 10 -16 10 -6
0 -7 -4 -4 -10z"/>
<path d="M2836 1921 c-3 -5 1 -14 9 -21 15 -13 47 -10 45 4 -1 5 4 13 12 17 8
6 0 9 -24 9 -20 0 -39 -4 -42 -9z"/>
<path d="M2917 1883 c3 -7 16 -13 30 -13 30 0 22 16 -11 22 -17 4 -23 1 -19
-9z"/>
<path d="M2760 1882 c0 -12 33 -32 52 -31 23 1 23 1 -2 9 -14 4 -19 8 -12 9
24 2 12 19 -13 17 -14 0 -25 -2 -25 -4z"/>
<path d="M2720 1870 c19 -13 30 -13 30 0 0 6 -10 10 -22 10 -19 0 -20 -2 -8
-10z"/>
<path d="M3279 3513 c-13 -16 -12 -17 4 -4 16 13 21 21 13 21 -2 0 -10 -8 -17
-17z"/>
<path d="M615 2870 c-3 -5 -1 -10 4 -10 6 0 11 5 11 10 0 6 -2 10 -4 10 -3 0
-8 -4 -11 -10z"/>
<path d="M4227 2173 c5 -15 3 -16 -8 -5 -7 6 -18 12 -23 12 -12 -1 24 -30 36
-30 11 0 10 28 -2 35 -6 4 -7 -1 -3 -12z"/>
<path d="M3250 2026 c0 -9 5 -16 10 -16 6 0 10 4 10 9 0 6 -4 13 -10 16 -5 3
-10 -1 -10 -9z"/>
<path d="M3008 2003 c7 -3 16 -2 19 1 4 3 -2 6 -13 5 -11 0 -14 -3 -6 -6z"/>
<path d="M2288 1373 c6 -2 18 -2 25 0 6 3 1 5 -13 5 -14 0 -19 -2 -12 -5z"/>
<path d="M3113 1363 c15 -2 39 -2 55 0 15 2 2 4 -28 4 -30 0 -43 -2 -27 -4z"/>
<path d="M2118 1353 c12 -2 30 -2 40 0 9 3 -1 5 -23 4 -22 0 -30 -2 -17 -4z"/>
<path d="M2068 1073 c7 -3 16 -2 19 1 4 3 -2 6 -13 5 -11 0 -14 -3 -6 -6z"/>
<path d="M2806 915 c-4 -10 1 -15 15 -15 13 0 18 4 13 12 -4 6 -3 9 2 6 5 -3
27 -2 49 2 39 8 39 8 -16 9 -42 1 -58 -3 -63 -14z"/>
<path d="M2543 903 c9 -2 23 -2 30 0 6 3 -1 5 -18 5 -16 0 -22 -2 -12 -5z"/>
<path d="M2958 898 c5 -5 16 -8 23 -6 8 3 3 7 -10 11 -17 4 -21 3 -13 -5z"/>
<path d="M2263 863 c-40 -4 -68 -28 -34 -30 9 0 26 -3 39 -6 13 -4 31 -3 40 1
13 5 10 8 -13 13 -24 5 -20 7 23 8 28 0 52 4 52 9 0 8 -45 10 -107 5z"/>
<path d="M2988 853 c6 -2 18 -2 25 0 6 3 1 5 -13 5 -14 0 -19 -2 -12 -5z"/>
<path d="M2608 843 c7 -3 16 -2 19 1 4 3 -2 6 -13 5 -11 0 -14 -3 -6 -6z"/>
<path d="M3739 823 l-24 -27 33 23 c32 23 39 31 24 31 -5 0 -19 -12 -33 -27z"/>
<path d="M3521 746 c-6 -7 -8 -21 -5 -30 6 -16 8 -16 25 0 11 9 19 23 19 31 0
17 -24 17 -39 -1z"/>
<path d="M3120 501 c0 -5 5 -13 10 -16 6 -3 10 -2 10 4 0 5 -4 13 -10 16 -5 3
-10 2 -10 -4z"/>
<path d="M2820 452 c-9 -4 -15 -14 -15 -22 0 -11 9 -14 30 -11 41 4 48 10 34
27 -12 15 -25 17 -49 6z"/>
<path d="M4765 3540 c-150 -6 -150 -6 -50 -10 55 -2 123 -3 150 -1 28 2 97 6
155 10 l105 7 -105 0 c-58 0 -172 -3 -255 -6z"/>
<path d="M785 3510 c3 -5 11 -10 16 -10 6 0 7 5 4 10 -3 6 -11 10 -16 10 -6 0
-7 -4 -4 -10z"/>
<path d="M58 3502 c-43 -2 -58 -7 -58 -18 0 -12 15 -13 88 -9 48 2 169 6 269
7 101 2 183 6 183 9 0 3 -8 7 -17 8 -27 4 -399 6 -465 3z"/>
<path d="M4728 3393 c18 -2 45 -2 60 0 15 2 0 4 -33 4 -33 0 -45 -2 -27 -4z"/>
<path d="M291 3216 c7 -7 189 -9 196 -2 3 3 -40 6 -97 6 -57 0 -101 -2 -99 -4z"/>
<path d="M4826 3168 c-10 -6 -46 -10 -80 -10 -43 1 -55 -2 -40 -8 20 -8 63
-13 95 -11 9 1 27 10 40 21 26 21 16 26 -15 8z"/>
<path d="M5017 3163 c18 -2 50 -2 70 0 21 2 7 4 -32 4 -38 0 -55 -2 -38 -4z"/>
<path d="M420 3151 c-103 -7 -94 -20 13 -20 60 0 77 3 77 15 0 8 -1 13 -2 12
-2 -1 -41 -4 -88 -7z"/>
<path d="M298 3133 c6 -2 18 -2 25 0 6 3 1 5 -13 5 -14 0 -19 -2 -12 -5z"/>
<path d="M188 3063 c12 -2 32 -2 45 0 12 2 2 4 -23 4 -25 0 -35 -2 -22 -4z"/>
<path d="M4890 2892 c-23 -3 -65 -17 -132 -47 -24 -10 -15 -11 69 -11 53 0 90
2 82 4 -8 2 -21 6 -29 9 -8 3 -24 5 -35 4 -17 -2 -18 0 -7 11 10 10 46 12 148
10 78 -1 134 2 134 7 0 9 -178 19 -230 13z"/>
<path d="M4725 2750 c17 -4 48 -8 70 -8 l40 1 -45 8 c-25 4 -56 7 -70 7 -23 0
-22 -1 5 -8z"/>
<path d="M4688 2653 c6 -2 18 -2 25 0 6 3 1 5 -13 5 -14 0 -19 -2 -12 -5z"/>
<path d="M4828 2643 c12 -2 32 -2 45 0 12 2 2 4 -23 4 -25 0 -35 -2 -22 -4z"/>
<path d="M4688 2373 c7 -3 16 -2 19 1 4 3 -2 6 -13 5 -11 0 -14 -3 -6 -6z"/>
<path d="M4708 2343 c6 -2 18 -2 25 0 6 3 1 5 -13 5 -14 0 -19 -2 -12 -5z"/>
<path d="M4718 2163 c7 -3 16 -2 19 1 4 3 -2 6 -13 5 -11 0 -14 -3 -6 -6z"/>
<path d="M3755 541 l-40 -18 35 -5 c39 -6 54 2 48 25 -3 14 -7 14 -43 -2z"/>
</g>
</svg>
